<svg xmlns="http://www.w3.org/2000/svg" xmlns:xlink="http://www.w3.org/1999/xlink" width="500" zoomAndPan="magnify" viewBox="0 0 375 374.999991" height="500" preserveAspectRatio="xMidYMid meet" version="1.0"><defs><clipPath id="a9d74f3ecd"><path d="M 0 0 L 373.5 0 L 373.5 375 L 0 375 Z M 0 0 " clip-rule="nonzero"/></clipPath></defs><g clip-path="url(#a9d74f3ecd)"><path fill="#270555" d="M 201.144531 109.273438 C 200.738281 109.273438 200.339844 109.332031 199.949219 109.453125 C 199.558594 109.570312 199.191406 109.742188 198.851562 109.96875 C 198.511719 110.195312 198.214844 110.464844 197.953125 110.78125 C 197.695312 111.097656 197.488281 111.441406 197.328125 111.820312 C 197.171875 112.195312 197.074219 112.585938 197.035156 112.992188 C 196.992188 113.398438 197.011719 113.804688 197.089844 114.203125 C 197.171875 114.605469 197.304688 114.984375 197.496094 115.34375 C 197.691406 115.707031 197.929688 116.03125 198.21875 116.320312 C 198.410156 116.511719 198.621094 116.679688 198.847656 116.828125 C 199.070312 116.980469 199.308594 117.105469 199.558594 117.207031 C 199.8125 117.3125 200.070312 117.386719 200.335938 117.441406 C 200.601562 117.492188 200.867188 117.519531 201.140625 117.519531 C 201.410156 117.519531 201.679688 117.492188 201.945312 117.441406 C 202.210938 117.386719 202.46875 117.3125 202.71875 117.207031 C 202.96875 117.105469 203.207031 116.980469 203.433594 116.828125 C 203.660156 116.679688 203.867188 116.511719 204.0625 116.320312 C 204.863281 115.523438 205.265625 114.5625 205.261719 113.429688 C 205.269531 113.164062 205.246094 112.894531 205.199219 112.628906 C 205.152344 112.363281 205.078125 112.109375 204.976562 111.855469 C 204.878906 111.605469 204.753906 111.367188 204.609375 111.144531 C 204.460938 110.917969 204.292969 110.707031 204.105469 110.515625 C 203.917969 110.324219 203.710938 110.152344 203.488281 110 C 203.265625 109.851562 203.03125 109.722656 202.78125 109.617188 C 202.535156 109.511719 202.277344 109.433594 202.015625 109.382812 C 201.75 109.328125 201.484375 109.300781 201.214844 109.300781 Z M 161.28125 109.125 C 160.140625 109.125 159.164062 109.523438 158.351562 110.328125 C 157.546875 111.132812 157.152344 112.105469 157.164062 113.242188 C 157.167969 113.648438 157.226562 114.046875 157.347656 114.433594 C 157.46875 114.824219 157.640625 115.1875 157.867188 115.523438 C 158.09375 115.859375 158.367188 116.15625 158.679688 116.414062 C 158.996094 116.671875 159.339844 116.878906 159.71875 117.03125 C 160.09375 117.1875 160.484375 117.28125 160.890625 117.320312 C 161.292969 117.359375 161.695312 117.339844 162.09375 117.257812 C 162.492188 117.179688 162.871094 117.042969 163.230469 116.851562 C 163.585938 116.660156 163.910156 116.417969 164.195312 116.128906 C 164.484375 115.839844 164.722656 115.515625 164.914062 115.15625 C 165.105469 114.796875 165.242188 114.417969 165.320312 114.019531 C 165.402344 113.617188 165.421875 113.214844 165.382812 112.808594 C 165.339844 112.40625 165.242188 112.011719 165.085938 111.636719 C 164.929688 111.261719 164.722656 110.914062 164.464844 110.597656 C 164.207031 110.285156 163.910156 110.011719 163.570312 109.785156 C 163.230469 109.558594 162.867188 109.386719 162.476562 109.265625 C 162.085938 109.148438 161.6875 109.085938 161.28125 109.085938 Z M 162.023438 63.390625 C 160.890625 63.386719 159.917969 63.78125 159.109375 64.578125 C 158.277344 65.394531 157.871094 66.382812 157.894531 67.546875 C 157.890625 67.816406 157.910156 68.082031 157.960938 68.347656 C 158.007812 68.609375 158.082031 68.867188 158.183594 69.117188 C 158.28125 69.367188 158.40625 69.605469 158.554688 69.828125 C 158.699219 70.054688 158.867188 70.261719 159.054688 70.453125 C 159.246094 70.644531 159.449219 70.816406 159.671875 70.96875 C 159.894531 71.117188 160.128906 71.246094 160.378906 71.347656 C 160.625 71.453125 160.882812 71.53125 161.144531 71.585938 C 161.40625 71.636719 161.675781 71.664062 161.941406 71.664062 C 163.085938 71.667969 164.0625 71.269531 164.871094 70.460938 C 165.683594 69.660156 166.082031 68.6875 166.074219 67.546875 C 166.074219 67.277344 166.046875 67.011719 165.992188 66.746094 C 165.941406 66.484375 165.859375 66.226562 165.757812 65.980469 C 165.652344 65.730469 165.523438 65.496094 165.375 65.273438 C 165.222656 65.050781 165.050781 64.84375 164.859375 64.65625 C 164.664062 64.46875 164.457031 64.300781 164.230469 64.152344 C 164.003906 64.007812 163.765625 63.882812 163.515625 63.785156 C 163.265625 63.683594 163.007812 63.609375 162.742188 63.5625 C 162.480469 63.515625 162.210938 63.492188 161.941406 63.5 Z M 186.828125 6.886719 C 185.691406 6.886719 184.71875 7.289062 183.914062 8.085938 C 183.097656 8.894531 182.699219 9.871094 182.710938 11.015625 C 182.707031 11.289062 182.730469 11.558594 182.78125 11.824219 C 182.828125 12.089844 182.90625 12.351562 183.007812 12.601562 C 183.109375 12.855469 183.234375 13.09375 183.382812 13.320312 C 183.535156 13.546875 183.707031 13.753906 183.898438 13.945312 C 184.089844 14.140625 184.296875 14.308594 184.523438 14.460938 C 184.75 14.609375 184.992188 14.734375 185.242188 14.835938 C 185.492188 14.9375 185.753906 15.015625 186.019531 15.066406 C 186.289062 15.113281 186.554688 15.136719 186.828125 15.132812 C 187.101562 15.136719 187.371094 15.117188 187.636719 15.066406 C 187.90625 15.019531 188.164062 14.941406 188.417969 14.839844 C 188.671875 14.738281 188.910156 14.613281 189.136719 14.464844 C 189.363281 14.316406 189.574219 14.144531 189.769531 13.953125 C 189.960938 13.761719 190.132812 13.550781 190.28125 13.324219 C 190.433594 13.097656 190.558594 12.859375 190.660156 12.605469 C 190.765625 12.351562 190.839844 12.09375 190.890625 11.824219 C 190.941406 11.558594 190.960938 11.289062 190.957031 11.015625 C 190.964844 10.742188 190.941406 10.472656 190.890625 10.203125 C 190.84375 9.9375 190.765625 9.675781 190.664062 9.421875 C 190.5625 9.167969 190.4375 8.929688 190.289062 8.703125 C 190.136719 8.472656 189.964844 8.265625 189.773438 8.070312 C 189.578125 7.878906 189.371094 7.707031 189.140625 7.558594 C 188.914062 7.40625 188.675781 7.28125 188.421875 7.179688 C 188.167969 7.078125 187.90625 7 187.640625 6.953125 C 187.371094 6.902344 187.101562 6.882812 186.828125 6.886719 Z M 136.371094 16.671875 C 135.226562 16.667969 134.25 17.066406 133.441406 17.871094 C 132.636719 18.675781 132.238281 19.648438 132.253906 20.785156 C 132.257812 21.925781 132.65625 22.902344 133.453125 23.714844 C 133.648438 23.90625 133.855469 24.074219 134.082031 24.226562 C 134.308594 24.375 134.546875 24.5 134.796875 24.605469 C 135.046875 24.707031 135.304688 24.785156 135.570312 24.835938 C 135.835938 24.890625 136.105469 24.914062 136.375 24.914062 C 136.648438 24.914062 136.914062 24.890625 137.179688 24.835938 C 137.445312 24.785156 137.703125 24.707031 137.957031 24.605469 C 138.207031 24.5 138.445312 24.375 138.671875 24.226562 C 138.894531 24.074219 139.105469 23.90625 139.296875 23.714844 C 139.488281 23.523438 139.65625 23.3125 139.808594 23.085938 C 139.957031 22.863281 140.082031 22.625 140.1875 22.371094 C 140.289062 22.121094 140.367188 21.863281 140.417969 21.597656 C 140.472656 21.332031 140.496094 21.0625 140.496094 20.792969 C 140.496094 20.523438 140.472656 20.253906 140.417969 19.988281 C 140.367188 19.722656 140.289062 19.464844 140.1875 19.214844 C 140.082031 18.964844 139.957031 18.726562 139.808594 18.5 C 139.65625 18.273438 139.488281 18.0625 139.296875 17.871094 C 138.480469 17.082031 137.503906 16.679688 136.371094 16.671875 Z M 240.28125 17.871094 C 239.476562 17.058594 238.5 16.65625 237.355469 16.671875 C 236.214844 16.660156 235.242188 17.0625 234.4375 17.871094 C 233.628906 18.675781 233.226562 19.644531 233.238281 20.785156 C 233.234375 21.929688 233.636719 22.90625 234.4375 23.714844 C 235.242188 24.527344 236.214844 24.925781 237.355469 24.917969 C 238.496094 24.917969 239.472656 24.515625 240.28125 23.714844 C 240.472656 23.523438 240.644531 23.3125 240.792969 23.085938 C 240.941406 22.863281 241.066406 22.625 241.171875 22.371094 C 241.273438 22.121094 241.351562 21.863281 241.402344 21.597656 C 241.457031 21.332031 241.484375 21.0625 241.484375 20.792969 C 241.484375 20.523438 241.457031 20.253906 241.402344 19.988281 C 241.351562 19.722656 241.273438 19.464844 241.171875 19.214844 C 241.066406 18.964844 240.941406 18.726562 240.792969 18.5 C 240.644531 18.273438 240.472656 18.0625 240.28125 17.871094 Z M 106.355469 32.460938 C 105.214844 32.449219 104.242188 32.851562 103.441406 33.660156 C 102.648438 34.445312 102.25 35.394531 102.238281 36.507812 C 102.238281 37.648438 102.636719 38.625 103.441406 39.4375 C 104.246094 40.242188 105.21875 40.640625 106.355469 40.625 C 107.5 40.636719 108.488281 40.246094 109.3125 39.449219 C 109.5 39.257812 109.671875 39.046875 109.820312 38.824219 C 109.96875 38.597656 110.097656 38.359375 110.199219 38.109375 C 110.300781 37.859375 110.378906 37.597656 110.433594 37.332031 C 110.484375 37.066406 110.511719 36.800781 110.511719 36.527344 C 110.511719 36.257812 110.484375 35.988281 110.433594 35.722656 C 110.378906 35.457031 110.300781 35.199219 110.199219 34.949219 C 110.097656 34.699219 109.96875 34.460938 109.820312 34.234375 C 109.671875 34.007812 109.5 33.800781 109.3125 33.605469 C 108.480469 32.824219 107.496094 32.441406 106.355469 32.460938 Z M 270.226562 33.660156 C 270.035156 33.472656 269.828125 33.300781 269.601562 33.152344 C 269.375 33 269.136719 32.875 268.886719 32.773438 C 268.636719 32.667969 268.378906 32.59375 268.113281 32.539062 C 267.847656 32.488281 267.578125 32.460938 267.308594 32.460938 C 267.035156 32.460938 266.769531 32.488281 266.5 32.539062 C 266.234375 32.59375 265.976562 32.667969 265.726562 32.773438 C 265.476562 32.875 265.238281 33 265.011719 33.152344 C 264.785156 33.300781 264.578125 33.472656 264.386719 33.660156 C 263.582031 34.441406 263.171875 35.390625 263.15625 36.507812 C 263.152344 37.648438 263.554688 38.625 264.359375 39.4375 C 265.164062 40.242188 266.132812 40.640625 267.273438 40.625 C 268.410156 40.628906 269.386719 40.230469 270.203125 39.4375 C 271.003906 38.625 271.398438 37.648438 271.390625 36.507812 C 271.417969 35.375 271.03125 34.410156 270.226562 33.605469 Z M 95.34375 63.5 C 94.203125 63.488281 93.230469 63.890625 92.429688 64.699219 C 91.636719 65.484375 91.234375 66.433594 91.226562 67.546875 C 91.222656 68.691406 91.621094 69.667969 92.429688 70.476562 C 93.230469 71.289062 94.203125 71.6875 95.34375 71.675781 C 96.484375 71.675781 97.460938 71.273438 98.273438 70.476562 C 98.652344 70.085938 98.945312 69.636719 99.152344 69.132812 C 99.359375 68.625 99.460938 68.101562 99.460938 67.554688 C 99.460938 67.007812 99.359375 66.484375 99.152344 65.976562 C 98.945312 65.472656 98.652344 65.023438 98.273438 64.632812 C 97.441406 63.882812 96.464844 63.503906 95.34375 63.5 Z M 281.242188 64.742188 C 281.046875 64.550781 280.839844 64.378906 280.613281 64.230469 C 280.386719 64.082031 280.148438 63.957031 279.898438 63.851562 C 279.648438 63.75 279.390625 63.671875 279.125 63.621094 C 278.859375 63.566406 278.589844 63.539062 278.320312 63.539062 C 278.046875 63.539062 277.78125 63.566406 277.515625 63.621094 C 277.25 63.671875 276.988281 63.75 276.738281 63.851562 C 276.488281 63.957031 276.25 64.082031 276.023438 64.230469 C 275.800781 64.378906 275.589844 64.550781 275.398438 64.742188 C 274.585938 65.542969 274.1875 66.515625 274.195312 67.65625 C 274.191406 68.796875 274.589844 69.773438 275.398438 70.585938 C 276.199219 71.394531 277.171875 71.796875 278.3125 71.785156 C 279.453125 71.785156 280.429688 71.382812 281.242188 70.585938 C 282.046875 69.773438 282.445312 68.796875 282.441406 67.65625 C 282.460938 67.101562 282.367188 66.566406 282.15625 66.050781 C 281.949219 65.535156 281.640625 65.085938 281.242188 64.699219 Z M 61.269531 63.878906 C 60.128906 63.867188 59.15625 64.265625 58.351562 65.078125 C 57.542969 65.878906 57.140625 66.851562 57.152344 67.992188 C 57.148438 69.132812 57.550781 70.109375 58.351562 70.921875 C 59.15625 71.734375 60.128906 72.132812 61.269531 72.121094 C 62.40625 72.121094 63.382812 71.722656 64.195312 70.921875 C 64.386719 70.730469 64.558594 70.519531 64.707031 70.292969 C 64.855469 70.066406 64.980469 69.828125 65.085938 69.578125 C 65.1875 69.328125 65.265625 69.070312 65.316406 68.804688 C 65.371094 68.539062 65.398438 68.269531 65.398438 68 C 65.398438 67.730469 65.371094 67.460938 65.316406 67.195312 C 65.265625 66.929688 65.1875 66.671875 65.085938 66.421875 C 64.980469 66.167969 64.855469 65.933594 64.707031 65.707031 C 64.558594 65.480469 64.386719 65.269531 64.195312 65.078125 C 63.402344 64.285156 62.445312 63.871094 61.324219 63.835938 Z M 315.195312 65.105469 C 314.390625 64.300781 313.417969 63.902344 312.28125 63.917969 C 312.011719 63.914062 311.746094 63.933594 311.480469 63.984375 C 311.214844 64.03125 310.960938 64.105469 310.710938 64.207031 C 310.460938 64.304688 310.222656 64.429688 309.996094 64.574219 C 309.773438 64.722656 309.566406 64.890625 309.375 65.078125 C 309.179688 65.265625 309.011719 65.472656 308.859375 65.695312 C 308.710938 65.917969 308.582031 66.152344 308.476562 66.402344 C 308.375 66.648438 308.296875 66.90625 308.242188 67.167969 C 308.191406 67.429688 308.164062 67.699219 308.164062 67.964844 C 308.160156 69.105469 308.558594 70.078125 309.351562 70.894531 C 310.164062 71.695312 311.140625 72.09375 312.28125 72.082031 C 312.550781 72.085938 312.820312 72.0625 313.085938 72.015625 C 313.355469 71.964844 313.613281 71.890625 313.867188 71.789062 C 314.117188 71.683594 314.355469 71.558594 314.582031 71.410156 C 314.808594 71.261719 315.019531 71.089844 315.210938 70.898438 C 315.402344 70.703125 315.574219 70.496094 315.722656 70.269531 C 315.875 70.042969 316 69.804688 316.101562 69.550781 C 316.203125 69.300781 316.277344 69.039062 316.328125 68.773438 C 316.378906 68.507812 316.398438 68.238281 316.394531 67.964844 C 316.417969 66.839844 316.035156 65.871094 315.25 65.066406 Z M 29.488281 106.683594 C 28.34375 106.675781 27.367188 107.078125 26.558594 107.886719 C 25.765625 108.667969 25.367188 109.617188 25.359375 110.730469 C 25.359375 111.871094 25.757812 112.847656 26.558594 113.660156 C 26.75 113.851562 26.960938 114.019531 27.1875 114.171875 C 27.414062 114.320312 27.652344 114.445312 27.902344 114.550781 C 28.152344 114.652344 28.410156 114.730469 28.675781 114.78125 C 28.941406 114.835938 29.210938 114.859375 29.480469 114.859375 C 29.75 114.859375 30.019531 114.835938 30.285156 114.78125 C 30.550781 114.730469 30.808594 114.652344 31.058594 114.550781 C 31.308594 114.445312 31.546875 114.320312 31.773438 114.171875 C 32 114.019531 32.210938 113.851562 32.402344 113.660156 C 32.679688 113.371094 32.90625 113.046875 33.089844 112.691406 C 33.273438 112.332031 33.398438 111.957031 33.472656 111.5625 C 33.546875 111.167969 33.5625 110.773438 33.519531 110.375 C 33.476562 109.976562 33.375 109.589844 33.222656 109.222656 C 33.066406 108.851562 32.863281 108.511719 32.609375 108.199219 C 32.355469 107.890625 32.0625 107.621094 31.730469 107.398438 C 31.402344 107.171875 31.042969 106.996094 30.660156 106.875 C 30.28125 106.753906 29.886719 106.691406 29.488281 106.683594 Z M 347.097656 107.886719 C 346.28125 107.058594 345.289062 106.65625 344.128906 106.683594 C 342.984375 106.675781 342.007812 107.078125 341.199219 107.886719 C 340.4375 108.683594 340.066406 109.628906 340.078125 110.730469 C 340.082031 111.871094 340.480469 112.847656 341.28125 113.660156 C 341.472656 113.851562 341.683594 114.019531 341.910156 114.171875 C 342.132812 114.320312 342.371094 114.445312 342.625 114.550781 C 342.875 114.652344 343.132812 114.730469 343.398438 114.78125 C 343.664062 114.835938 343.933594 114.859375 344.203125 114.859375 C 344.472656 114.859375 344.742188 114.835938 345.007812 114.78125 C 345.273438 114.730469 345.53125 114.652344 345.78125 114.550781 C 346.03125 114.445312 346.269531 114.320312 346.496094 114.171875 C 346.722656 114.019531 346.929688 113.851562 347.125 113.660156 C 347.9375 112.855469 348.339844 111.878906 348.324219 110.730469 C 348.316406 109.601562 347.90625 108.644531 347.097656 107.859375 Z M 51.929688 136.292969 C 50.785156 136.285156 49.8125 136.6875 49 137.492188 C 48.191406 138.296875 47.789062 139.265625 47.800781 140.410156 C 47.804688 141.546875 48.203125 142.523438 49 143.335938 C 49.390625 143.71875 49.839844 144.011719 50.34375 144.21875 C 50.851562 144.421875 51.378906 144.527344 51.921875 144.527344 C 52.46875 144.527344 52.996094 144.421875 53.5 144.21875 C 54.003906 144.011719 54.453125 143.71875 54.84375 143.335938 C 55.035156 143.144531 55.203125 142.933594 55.355469 142.710938 C 55.503906 142.484375 55.628906 142.246094 55.734375 141.996094 C 55.835938 141.742188 55.914062 141.484375 55.964844 141.21875 C 56.019531 140.953125 56.042969 140.6875 56.042969 140.414062 C 56.042969 140.144531 56.019531 139.875 55.964844 139.609375 C 55.914062 139.34375 55.835938 139.085938 55.734375 138.835938 C 55.628906 138.585938 55.503906 138.347656 55.355469 138.121094 C 55.203125 137.894531 55.035156 137.6875 54.84375 137.492188 C 54.027344 136.714844 53.058594 136.316406 51.929688 136.292969 Z M 324.695312 137.492188 C 324.40625 137.207031 324.082031 136.964844 323.722656 136.773438 C 323.363281 136.582031 322.984375 136.445312 322.582031 136.367188 C 322.183594 136.289062 321.78125 136.269531 321.375 136.308594 C 320.96875 136.347656 320.578125 136.445312 320.203125 136.601562 C 319.824219 136.757812 319.480469 136.964844 319.164062 137.222656 C 318.847656 137.480469 318.578125 137.78125 318.351562 138.121094 C 318.121094 138.457031 317.949219 138.824219 317.832031 139.210938 C 317.710938 139.601562 317.652344 140 317.652344 140.410156 C 317.648438 141.550781 318.046875 142.527344 318.851562 143.335938 C 319.140625 143.625 319.464844 143.863281 319.824219 144.058594 C 320.1875 144.25 320.566406 144.382812 320.96875 144.464844 C 321.367188 144.542969 321.769531 144.5625 322.175781 144.519531 C 322.582031 144.480469 322.976562 144.382812 323.351562 144.226562 C 323.730469 144.066406 324.074219 143.859375 324.390625 143.601562 C 324.707031 143.339844 324.976562 143.042969 325.203125 142.703125 C 325.429688 142.363281 325.601562 141.996094 325.71875 141.605469 C 325.835938 141.214844 325.898438 140.816406 325.894531 140.410156 C 325.882812 139.277344 325.480469 138.304688 324.695312 137.492188 Z M 10.902344 163.363281 C 9.765625 163.367188 8.789062 163.765625 7.976562 164.566406 C 7.785156 164.757812 7.617188 164.964844 7.464844 165.191406 C 7.316406 165.417969 7.191406 165.65625 7.085938 165.90625 C 6.984375 166.15625 6.90625 166.414062 6.855469 166.683594 C 6.800781 166.949219 6.777344 167.214844 6.777344 167.488281 C 6.777344 167.757812 6.800781 168.027344 6.855469 168.292969 C 6.90625 168.558594 6.984375 168.816406 7.085938 169.066406 C 7.191406 169.316406 7.316406 169.554688 7.464844 169.78125 C 7.617188 170.007812 7.785156 170.214844 7.976562 170.410156 C 8.167969 170.597656 8.378906 170.769531 8.601562 170.917969 C 8.828125 171.066406 9.066406 171.195312 9.316406 171.296875 C 9.570312 171.398438 9.828125 171.476562 10.09375 171.53125 C 10.359375 171.582031 10.625 171.609375 10.898438 171.609375 C 11.167969 171.609375 11.4375 171.582031 11.703125 171.53125 C 11.96875 171.476562 12.226562 171.398438 12.476562 171.296875 C 12.726562 171.195312 12.964844 171.066406 13.191406 170.917969 C 13.417969 170.769531 13.625 170.597656 13.820312 170.410156 C 14.628906 169.605469 15.03125 168.632812 15.019531 167.492188 C 15.027344 166.351562 14.625 165.375 13.820312 164.566406 C 13.007812 163.773438 12.035156 163.375 10.902344 163.363281 Z M 365.679688 164.566406 C 364.875 163.75 363.898438 163.347656 362.75 163.363281 C 361.617188 163.363281 360.644531 163.765625 359.835938 164.566406 C 359.644531 164.757812 359.476562 164.964844 359.328125 165.191406 C 359.175781 165.417969 359.050781 165.65625 358.949219 165.90625 C 358.84375 166.15625 358.769531 166.414062 358.714844 166.683594 C 358.664062 166.949219 358.636719 167.214844 358.636719 167.488281 C 358.636719 167.757812 358.664062 168.027344 358.714844 168.292969 C 358.769531 168.558594 358.84375 168.816406 358.949219 169.066406 C 359.050781 169.316406 359.175781 169.554688 359.328125 169.78125 C 359.476562 170.007812 359.644531 170.214844 359.835938 170.410156 C 360.640625 171.21875 361.609375 171.621094 362.75 171.609375 C 363.898438 171.625 364.875 171.222656 365.679688 170.410156 C 366.492188 169.605469 366.890625 168.632812 366.882812 167.492188 C 366.910156 166.933594 366.824219 166.394531 366.621094 165.871094 C 366.421875 165.347656 366.121094 164.890625 365.722656 164.496094 Z M 11.199219 198.558594 C 10.066406 198.554688 9.09375 198.949219 8.285156 199.746094 C 8.09375 199.941406 7.925781 200.148438 7.777344 200.375 C 7.625 200.601562 7.5 200.839844 7.398438 201.089844 C 7.292969 201.339844 7.21875 201.597656 7.164062 201.863281 C 7.113281 202.128906 7.085938 202.398438 7.085938 202.667969 C 7.085938 202.941406 7.113281 203.207031 7.164062 203.472656 C 7.21875 203.738281 7.292969 203.996094 7.398438 204.246094 C 7.5 204.5 7.625 204.738281 7.777344 204.960938 C 7.925781 205.1875 8.09375 205.398438 8.285156 205.589844 C 9.089844 206.402344 10.058594 206.800781 11.199219 206.792969 C 12.34375 206.792969 13.320312 206.394531 14.128906 205.589844 C 14.933594 204.785156 15.332031 203.8125 15.316406 202.675781 C 15.316406 202.410156 15.292969 202.144531 15.238281 201.886719 C 15.1875 201.625 15.109375 201.371094 15.007812 201.125 C 14.90625 200.878906 14.78125 200.648438 14.636719 200.425781 C 14.488281 200.203125 14.320312 200 14.132812 199.8125 C 13.941406 199.625 13.738281 199.457031 13.519531 199.308594 C 13.296875 199.160156 13.0625 199.035156 12.816406 198.933594 C 12.570312 198.832031 12.320312 198.757812 12.058594 198.703125 C 11.796875 198.652344 11.535156 198.625 11.269531 198.625 Z M 365.382812 199.746094 C 364.992188 199.367188 364.542969 199.070312 364.039062 198.867188 C 363.535156 198.660156 363.007812 198.558594 362.460938 198.558594 C 361.914062 198.558594 361.390625 198.660156 360.882812 198.867188 C 360.378906 199.070312 359.929688 199.367188 359.539062 199.746094 C 359.347656 199.941406 359.179688 200.148438 359.03125 200.375 C 358.878906 200.601562 358.753906 200.839844 358.652344 201.089844 C 358.546875 201.339844 358.472656 201.597656 358.417969 201.863281 C 358.367188 202.128906 358.339844 202.398438 358.339844 202.667969 C 358.339844 202.941406 358.367188 203.207031 358.417969 203.472656 C 358.472656 203.738281 358.546875 203.996094 358.652344 204.246094 C 358.753906 204.5 358.878906 204.738281 359.03125 204.960938 C 359.179688 205.1875 359.347656 205.398438 359.539062 205.589844 C 360.34375 206.402344 361.3125 206.800781 362.453125 206.792969 C 363.597656 206.796875 364.574219 206.398438 365.382812 205.589844 C 366.195312 204.789062 366.59375 203.816406 366.585938 202.675781 C 366.574219 201.554688 366.175781 200.597656 365.382812 199.800781 Z M 114.15625 244.96875 C 113.964844 244.777344 113.753906 244.609375 113.527344 244.460938 C 113.300781 244.308594 113.0625 244.183594 112.8125 244.082031 C 112.5625 243.976562 112.304688 243.902344 112.039062 243.847656 C 111.773438 243.796875 111.503906 243.769531 111.234375 243.769531 C 110.964844 243.769531 110.695312 243.796875 110.429688 243.847656 C 110.164062 243.902344 109.90625 243.976562 109.65625 244.082031 C 109.40625 244.183594 109.167969 244.308594 108.941406 244.460938 C 108.714844 244.609375 108.503906 244.777344 108.3125 244.96875 C 108.121094 245.160156 107.953125 245.371094 107.804688 245.597656 C 107.652344 245.824219 107.527344 246.0625 107.425781 246.3125 C 107.320312 246.5625 107.242188 246.820312 107.191406 247.085938 C 107.140625 247.351562 107.113281 247.621094 107.113281 247.890625 C 107.113281 248.160156 107.140625 248.429688 107.191406 248.695312 C 107.242188 248.960938 107.320312 249.21875 107.425781 249.46875 C 107.527344 249.722656 107.652344 249.960938 107.804688 250.183594 C 107.953125 250.410156 108.121094 250.621094 108.3125 250.8125 C 109.113281 251.625 110.085938 252.023438 111.226562 252.015625 C 112.371094 252.015625 113.34375 251.617188 114.15625 250.8125 C 114.960938 250.007812 115.359375 249.035156 115.34375 247.898438 C 115.355469 246.757812 114.957031 245.78125 114.15625 244.96875 Z M 111.269531 236.992188 C 112.714844 236.996094 114.105469 237.273438 115.441406 237.824219 C 116.777344 238.375 117.960938 239.160156 118.988281 240.179688 C 119.304688 240.492188 119.597656 240.828125 119.875 241.179688 C 120.148438 241.53125 120.402344 241.898438 120.628906 242.277344 C 120.859375 242.660156 121.066406 243.054688 121.246094 243.464844 C 121.429688 243.871094 121.582031 244.289062 121.714844 244.714844 C 121.84375 245.140625 121.945312 245.574219 122.023438 246.015625 C 122.101562 246.453125 122.148438 246.898438 122.171875 247.34375 C 122.195312 247.789062 122.191406 248.234375 122.15625 248.675781 C 122.125 249.121094 122.066406 249.5625 121.980469 250 C 121.890625 250.4375 121.777344 250.871094 121.640625 251.292969 C 121.5 251.71875 121.335938 252.128906 121.144531 252.535156 C 120.953125 252.9375 120.742188 253.328125 120.503906 253.703125 C 120.265625 254.082031 120.003906 254.441406 119.722656 254.789062 C 119.4375 255.132812 119.136719 255.460938 118.8125 255.769531 C 118.488281 256.074219 118.148438 256.363281 117.792969 256.628906 C 117.433594 256.894531 117.0625 257.136719 116.671875 257.359375 C 116.285156 257.578125 115.886719 257.773438 115.472656 257.945312 C 115.0625 258.117188 114.640625 258.261719 114.210938 258.382812 C 113.78125 258.5 113.34375 258.59375 112.902344 258.660156 C 112.460938 258.726562 112.019531 258.765625 111.574219 258.773438 C 111.128906 258.785156 110.683594 258.769531 110.238281 258.726562 C 109.792969 258.683594 109.355469 258.613281 108.917969 258.515625 C 108.484375 258.417969 108.054688 258.296875 107.636719 258.144531 C 107.214844 257.996094 106.804688 257.820312 106.40625 257.621094 C 106.007812 257.421875 105.625 257.195312 105.253906 256.949219 C 104.882812 256.703125 104.527344 256.433594 104.191406 256.140625 C 103.851562 255.851562 103.53125 255.539062 103.234375 255.210938 C 102.933594 254.878906 102.652344 254.53125 102.398438 254.167969 C 102.140625 253.804688 101.90625 253.425781 101.695312 253.03125 C 101.484375 252.636719 101.296875 252.234375 101.136719 251.816406 C 100.976562 251.402344 100.84375 250.976562 100.734375 250.542969 C 100.625 250.113281 100.542969 249.671875 100.488281 249.230469 C 100.433594 248.789062 100.40625 248.34375 100.40625 247.898438 C 100.40625 246.453125 100.683594 245.058594 101.234375 243.722656 C 101.785156 242.386719 102.570312 241.203125 103.589844 240.179688 C 104.605469 239.15625 105.777344 238.371094 107.109375 237.816406 C 108.441406 237.265625 109.828125 236.992188 111.269531 236.992188 Z M 182.792969 345.332031 C 182.828125 345.542969 182.851562 345.753906 182.859375 345.96875 C 182.882812 346.234375 182.933594 346.5 183.011719 346.757812 C 183.085938 347.015625 183.1875 347.261719 183.3125 347.5 C 183.4375 347.738281 183.585938 347.964844 183.753906 348.171875 C 183.921875 348.382812 184.113281 348.574219 184.320312 348.746094 C 184.523438 348.917969 184.746094 349.070312 184.984375 349.195312 C 185.21875 349.324219 185.464844 349.429688 185.722656 349.511719 C 185.980469 349.589844 186.242188 349.644531 186.511719 349.671875 C 186.777344 349.703125 187.046875 349.703125 187.3125 349.679688 C 187.582031 349.65625 187.84375 349.605469 188.101562 349.527344 C 188.359375 349.453125 188.609375 349.351562 188.847656 349.226562 C 189.085938 349.101562 189.308594 348.953125 189.519531 348.785156 C 189.730469 348.617188 189.917969 348.425781 190.089844 348.222656 C 190.265625 348.015625 190.414062 347.792969 190.542969 347.554688 C 190.671875 347.320312 190.777344 347.074219 190.855469 346.816406 C 190.9375 346.558594 190.992188 346.296875 191.019531 346.027344 C 191.046875 345.761719 191.050781 345.492188 191.023438 345.226562 C 191.03125 344.082031 190.628906 343.105469 189.824219 342.296875 C 189.023438 341.484375 188.050781 341.085938 186.910156 341.097656 C 186.636719 341.089844 186.367188 341.113281 186.097656 341.164062 C 185.832031 341.214844 185.570312 341.289062 185.320312 341.390625 C 185.066406 341.492188 184.828125 341.621094 184.601562 341.769531 C 184.375 341.921875 184.164062 342.09375 183.972656 342.285156 C 183.78125 342.480469 183.609375 342.6875 183.460938 342.914062 C 183.3125 343.144531 183.183594 343.382812 183.082031 343.636719 C 182.980469 343.886719 182.90625 344.148438 182.859375 344.414062 C 182.808594 344.683594 182.789062 344.953125 182.792969 345.226562 Z M 287.015625 334.617188 C 277.988281 332.890625 262.804688 329.21875 250.863281 322.742188 C 244.832031 328.625 223.0625 348.03125 196.988281 349.273438 C 196.421875 350.648438 195.621094 351.875 194.585938 352.945312 C 193.566406 353.972656 192.386719 354.761719 191.046875 355.3125 C 189.710938 355.867188 188.316406 356.136719 186.867188 356.128906 C 185.421875 356.125 184.03125 355.84375 182.695312 355.292969 C 181.359375 354.742188 180.179688 353.960938 179.148438 352.945312 C 178.09375 351.882812 177.285156 350.660156 176.71875 349.273438 C 150.945312 347.992188 129.027344 328.625 122.578125 322.363281 C 110.554688 329.113281 95.007812 332.824219 85.789062 334.578125 C 93.054688 339.949219 100.703125 344.710938 108.726562 348.863281 C 116.753906 353.019531 125.054688 356.511719 133.636719 359.34375 C 142.21875 362.175781 150.96875 364.3125 159.890625 365.75 C 168.8125 367.191406 177.792969 367.914062 186.828125 367.925781 C 195.792969 367.890625 204.703125 367.152344 213.550781 365.703125 C 222.398438 364.253906 231.078125 362.117188 239.585938 359.289062 C 248.09375 356.457031 256.328125 352.976562 264.28125 348.839844 C 272.238281 344.699219 279.816406 339.960938 287.015625 334.617188 Z M 186.421875 251.445312 C 188.179688 250.0625 190.164062 249.1875 192.375 248.828125 C 196.53125 248.453125 205.453125 254.78125 205.492188 254.820312 C 205.875 255.074219 206.191406 255.394531 206.441406 255.777344 C 206.695312 256.160156 206.863281 256.578125 206.945312 257.03125 C 207.027344 257.480469 207.019531 257.929688 206.917969 258.378906 C 206.816406 258.828125 206.632812 259.238281 206.367188 259.609375 C 206.101562 259.984375 205.769531 260.289062 205.378906 260.53125 C 204.988281 260.769531 204.566406 260.921875 204.109375 260.988281 C 203.65625 261.058594 203.207031 261.035156 202.765625 260.917969 C 202.320312 260.804688 201.914062 260.605469 201.550781 260.328125 C 201.550781 260.328125 194.628906 255.429688 192.980469 255.578125 C 191.335938 255.726562 188.933594 258.152344 188.824219 258.277344 L 184.453125 258.277344 C 184.371094 258.195312 181.941406 255.765625 180.296875 255.578125 C 179.351562 255.496094 176.816406 256.925781 174.710938 258.277344 C 176.207031 259.925781 177.890625 261.351562 179.769531 262.554688 C 181.917969 263.964844 184.273438 264.703125 186.839844 264.765625 C 188.363281 264.71875 189.839844 264.429688 191.269531 263.902344 C 192.828125 263.402344 194.289062 262.703125 195.652344 261.796875 C 196.011719 261.527344 196.40625 261.339844 196.839844 261.226562 C 197.273438 261.113281 197.714844 261.089844 198.15625 261.152344 C 198.601562 261.214844 199.015625 261.363281 199.402344 261.589844 C 199.785156 261.816406 200.113281 262.109375 200.382812 262.46875 C 200.652344 262.828125 200.839844 263.222656 200.953125 263.65625 C 201.0625 264.089844 201.085938 264.53125 201.023438 264.972656 C 200.957031 265.417969 200.8125 265.832031 200.582031 266.214844 C 200.355469 266.601562 200.0625 266.929688 199.703125 267.195312 C 197.75 268.53125 195.648438 269.566406 193.398438 270.300781 C 191.277344 271.050781 189.089844 271.464844 186.839844 271.542969 C 184.953125 271.507812 183.105469 271.210938 181.296875 270.660156 C 179.488281 270.105469 177.792969 269.316406 176.207031 268.289062 C 172.605469 265.976562 169.546875 263.089844 167.03125 259.625 L 166.921875 259.515625 C 166.664062 259.152344 166.484375 258.75 166.382812 258.3125 C 166.28125 257.875 166.269531 257.4375 166.34375 256.996094 C 166.414062 256.550781 166.570312 256.140625 166.804688 255.757812 C 167.042969 255.378906 167.34375 255.054688 167.707031 254.792969 C 167.707031 254.792969 176.652344 248.425781 180.824219 248.800781 C 182.894531 249.222656 184.746094 250.105469 186.382812 251.445312 Z M 180.457031 200.878906 L 180.457031 200.960938 C 180.457031 201.027344 180.457031 201.070312 180.539062 201.152344 C 180.648438 201.554688 182.1875 207.101562 182.1875 219.207031 L 182.1875 235.953125 L 195.03125 235.953125 C 195.453125 235.992188 195.855469 236.105469 196.234375 236.292969 C 196.613281 236.480469 196.945312 236.730469 197.230469 237.042969 C 197.515625 237.355469 197.734375 237.707031 197.886719 238.101562 C 198.042969 238.496094 198.117188 238.90625 198.117188 239.328125 C 198.117188 239.75 198.042969 240.160156 197.886719 240.554688 C 197.734375 240.949219 197.515625 241.300781 197.230469 241.613281 C 196.945312 241.925781 196.613281 242.175781 196.234375 242.363281 C 195.855469 242.550781 195.453125 242.664062 195.03125 242.703125 L 178.839844 242.703125 C 178.390625 242.703125 177.960938 242.621094 177.546875 242.449219 C 177.132812 242.277344 176.765625 242.035156 176.449219 241.71875 C 176.132812 241.402344 175.890625 241.035156 175.71875 240.621094 C 175.546875 240.207031 175.464844 239.777344 175.464844 239.328125 L 175.464844 219.300781 C 175.464844 209.640625 174.535156 204.886719 174.195312 203.539062 C 173.144531 201.917969 168.796875 196.007812 164.074219 196.007812 L 138.433594 196.007812 C 137.984375 196.011719 137.554688 195.925781 137.140625 195.753906 C 136.726562 195.585938 136.359375 195.339844 136.042969 195.023438 C 135.726562 194.707031 135.484375 194.34375 135.3125 193.929688 C 135.144531 193.515625 135.058594 193.082031 135.058594 192.636719 C 135.058594 192.1875 135.144531 191.753906 135.316406 191.335938 C 135.488281 190.921875 135.730469 190.554688 136.046875 190.234375 C 136.363281 189.914062 136.726562 189.667969 137.140625 189.492188 C 137.554688 189.316406 137.984375 189.226562 138.433594 189.21875 L 164.074219 189.21875 C 172.875 189.21875 179.433594 199.195312 180.105469 200.273438 C 180.242188 200.460938 180.34375 200.664062 180.417969 200.878906 Z M 198.378906 203.847656 C 198.136719 204.214844 197.835938 204.523438 197.476562 204.773438 C 197.113281 205.019531 196.71875 205.191406 196.289062 205.289062 C 195.859375 205.382812 195.429688 205.390625 194.996094 205.320312 C 194.5625 205.246094 194.160156 205.09375 193.789062 204.859375 C 193.414062 204.628906 193.097656 204.335938 192.839844 203.984375 C 192.582031 203.628906 192.398438 203.238281 192.289062 202.8125 C 192.183594 202.386719 192.160156 201.957031 192.222656 201.523438 C 192.285156 201.085938 192.425781 200.679688 192.644531 200.300781 C 192.644531 200.300781 199.472656 189.125 208.757812 189.125 L 234.398438 189.125 C 234.808594 189.179688 235.199219 189.300781 235.5625 189.496094 C 235.929688 189.6875 236.25 189.941406 236.523438 190.25 C 236.796875 190.5625 237.007812 190.910156 237.152344 191.296875 C 237.296875 191.683594 237.371094 192.085938 237.371094 192.5 C 237.371094 192.914062 237.296875 193.316406 237.152344 193.703125 C 237.007812 194.089844 236.796875 194.4375 236.523438 194.75 C 236.25 195.058594 235.929688 195.3125 235.5625 195.503906 C 235.199219 195.699219 234.808594 195.820312 234.398438 195.875 L 208.757812 195.875 C 203.199219 196.007812 198.378906 203.847656 198.378906 203.847656 Z M 166.613281 212.214844 C 167.027344 212.015625 167.464844 211.90625 167.925781 211.882812 C 168.386719 211.859375 168.832031 211.929688 169.265625 212.089844 C 169.695312 212.25 170.078125 212.488281 170.414062 212.804688 C 170.75 213.125 171.007812 213.492188 171.191406 213.914062 C 171.375 214.339844 171.46875 214.78125 171.472656 215.242188 C 171.476562 215.703125 171.390625 216.144531 171.210938 216.570312 C 171.035156 216.996094 170.78125 217.371094 170.449219 217.691406 C 170.121094 218.011719 169.742188 218.257812 169.3125 218.425781 C 169.230469 218.425781 149.714844 227.007812 134.65625 215.359375 C 134.355469 215.074219 134.113281 214.746094 133.933594 214.371094 C 133.753906 214 133.648438 213.605469 133.613281 213.191406 C 133.578125 212.777344 133.621094 212.371094 133.738281 211.972656 C 133.851562 211.574219 134.039062 211.210938 134.289062 210.882812 C 134.539062 210.550781 134.84375 210.277344 135.195312 210.058594 C 135.546875 209.839844 135.929688 209.695312 136.335938 209.617188 C 136.742188 209.539062 137.152344 209.535156 137.558594 209.609375 C 137.96875 209.683594 138.347656 209.828125 138.703125 210.042969 C 150.632812 219.273438 166.558594 212.296875 166.597656 212.269531 Z M 203.523438 218.425781 C 203.09375 218.257812 202.710938 218.011719 202.382812 217.691406 C 202.050781 217.371094 201.796875 216.996094 201.621094 216.570312 C 201.441406 216.144531 201.355469 215.703125 201.359375 215.242188 C 201.363281 214.78125 201.457031 214.339844 201.640625 213.914062 C 201.824219 213.492188 202.082031 213.125 202.417969 212.804688 C 202.753906 212.488281 203.136719 212.25 203.570312 212.089844 C 204 211.929688 204.445312 211.859375 204.90625 211.882812 C 205.367188 211.90625 205.804688 212.015625 206.21875 212.214844 C 206.21875 212.214844 222.183594 219.179688 234.0625 210.003906 C 234.414062 209.730469 234.804688 209.535156 235.234375 209.417969 C 235.664062 209.300781 236.101562 209.269531 236.542969 209.324219 C 236.988281 209.382812 237.402344 209.519531 237.789062 209.742188 C 238.175781 209.960938 238.507812 210.25 238.78125 210.601562 C 239.054688 210.953125 239.25 211.347656 239.367188 211.777344 C 239.484375 212.207031 239.511719 212.644531 239.457031 213.085938 C 239.398438 213.527344 239.261719 213.945312 239.039062 214.332031 C 238.816406 214.71875 238.53125 215.046875 238.175781 215.320312 C 223.089844 227.0625 203.574219 218.519531 203.507812 218.476562 Z M 125.183594 231.917969 C 123.980469 225.402344 122.375 216.496094 120.566406 206.375 C 117.867188 205.804688 112.550781 205.359375 109.109375 208.800781 C 108.722656 209.1875 108.433594 209.640625 108.246094 210.152344 C 107.972656 211.109375 107.871094 212.082031 107.945312 213.078125 C 108.015625 214.070312 108.257812 215.019531 108.664062 215.925781 C 109.949219 219.085938 111.835938 221.835938 114.316406 224.171875 C 117.5 227.398438 121.117188 230.019531 125.167969 232.039062 Z M 221.6875 273.996094 C 220.402344 275.050781 219.09375 276.089844 217.867188 277.101562 C 216.640625 278.113281 215.425781 279.058594 213.820312 280.328125 C 207.949219 285.199219 203.453125 288.234375 199.257812 290.070312 C 197.203125 290.898438 195.089844 291.523438 192.914062 291.949219 C 190.738281 292.371094 188.542969 292.582031 186.328125 292.582031 C 184.113281 292.582031 181.917969 292.371094 179.742188 291.949219 C 177.570312 291.523438 175.453125 290.898438 173.398438 290.070312 C 169.203125 288.234375 164.710938 285.199219 158.824219 280.328125 C 157.285156 279.058594 156.125 278.074219 154.859375 277.101562 C 153.589844 276.128906 152.347656 275.078125 151.039062 273.996094 C 148.90625 284.589844 142.941406 306.777344 129.835938 317.410156 C 129.339844 317.789062 128.894531 318.167969 128.367188 318.546875 C 135.34375 325.089844 154.332031 340.949219 176.207031 342.363281 C 176.699219 340.460938 177.648438 338.824219 179.054688 337.453125 C 180.074219 336.425781 181.253906 335.636719 182.59375 335.082031 C 183.933594 334.53125 185.324219 334.257812 186.773438 334.265625 C 187.371094 334.265625 187.964844 334.3125 188.554688 334.410156 C 189.144531 334.503906 189.726562 334.648438 190.292969 334.839844 C 190.859375 335.03125 191.40625 335.265625 191.933594 335.546875 C 192.460938 335.828125 192.960938 336.152344 193.4375 336.515625 C 193.910156 336.878906 194.351562 337.28125 194.761719 337.714844 C 195.171875 338.152344 195.539062 338.621094 195.871094 339.117188 C 196.203125 339.613281 196.492188 340.136719 196.742188 340.679688 C 196.988281 341.226562 197.1875 341.785156 197.339844 342.363281 C 219.363281 341.015625 238.136719 325.320312 244.84375 318.949219 C 244.128906 318.464844 243.496094 317.9375 242.820312 317.410156 C 229.730469 306.898438 223.804688 284.820312 221.671875 274.121094 Z M 252.238281 206.546875 C 250.402344 216.671875 248.796875 225.617188 247.636719 232.09375 C 251.679688 230.097656 255.316406 227.523438 258.542969 224.375 C 261.007812 222.03125 262.890625 219.285156 264.195312 216.144531 C 264.609375 215.238281 264.847656 214.285156 264.917969 213.292969 C 264.988281 212.296875 264.882812 211.324219 264.601562 210.367188 C 264.402344 209.859375 264.117188 209.410156 263.738281 209.019531 C 260.253906 205.480469 255.058594 205.96875 252.238281 206.546875 Z M 186.382812 286.007812 C 189.9375 286.125 193.347656 285.476562 196.613281 284.066406 C 200.160156 282.484375 204.140625 279.789062 209.566406 275.292969 C 210.578125 274.46875 212.078125 273.226562 213.617188 272 C 224.035156 263.566406 236.839844 253.226562 239.257812 240.042969 C 240.1875 234.941406 242.777344 220.679688 245.921875 203.324219 C 245.921875 203.324219 245.921875 203.175781 245.921875 203.105469 C 247.191406 195.980469 248.621094 188.382812 249.972656 180.664062 L 211.550781 151.21875 C 210.011719 152 208.378906 152.386719 206.652344 152.378906 C 205.207031 152.375 203.816406 152.097656 202.480469 151.546875 C 201.140625 150.996094 199.960938 150.210938 198.933594 149.195312 C 197.90625 148.171875 197.117188 146.992188 196.5625 145.65625 C 196.011719 144.316406 195.738281 142.921875 195.75 141.472656 C 195.75 140.027344 196.027344 138.636719 196.578125 137.300781 C 197.128906 135.964844 197.914062 134.78125 198.933594 133.753906 C 199.957031 132.730469 201.136719 131.945312 202.472656 131.394531 C 203.8125 130.84375 205.207031 130.574219 206.652344 130.582031 C 208.097656 130.585938 209.488281 130.859375 210.824219 131.410156 C 212.160156 131.957031 213.34375 132.738281 214.371094 133.753906 C 214.773438 134.160156 215.144531 134.59375 215.476562 135.054688 C 215.8125 135.515625 216.109375 136 216.367188 136.511719 C 216.628906 137.019531 216.84375 137.542969 217.019531 138.085938 C 217.199219 138.628906 217.332031 139.183594 217.421875 139.746094 C 217.511719 140.308594 217.554688 140.875 217.554688 141.445312 C 217.558594 142.015625 217.511719 142.585938 217.425781 143.148438 C 217.335938 143.710938 217.207031 144.265625 217.03125 144.808594 C 216.855469 145.351562 216.640625 145.878906 216.382812 146.386719 L 251.375 173.066406 L 252.996094 164.039062 C 252.992188 163.894531 253.015625 163.753906 253.0625 163.621094 C 255.234375 151.636719 257.300781 140.125 258.988281 130.800781 L 235.195312 103.660156 C 235.113281 103.578125 235.085938 103.511719 235.007812 103.429688 L 234.816406 103.175781 C 234.695312 103.054688 234.628906 102.90625 234.507812 102.796875 L 184.386719 40.71875 C 183.773438 40.066406 183.472656 39.292969 183.480469 38.398438 L 183.480469 21.351562 C 181.828125 20.804688 180.390625 19.90625 179.175781 18.65625 C 178.148438 17.632812 177.359375 16.453125 176.808594 15.113281 C 176.253906 13.777344 175.984375 12.382812 175.992188 10.933594 C 175.996094 9.488281 176.277344 8.097656 176.828125 6.761719 C 177.378906 5.425781 178.160156 4.246094 179.175781 3.214844 C 180.195312 2.199219 181.375 1.417969 182.707031 0.875 C 184.042969 0.328125 185.429688 0.0625 186.867188 0.0703125 C 188.3125 0.078125 189.703125 0.355469 191.039062 0.90625 C 192.375 1.457031 193.558594 2.242188 194.585938 3.257812 C 195.613281 4.277344 196.40625 5.457031 196.957031 6.796875 C 197.507812 8.132812 197.78125 9.527344 197.773438 10.976562 C 197.765625 12.421875 197.488281 13.8125 196.9375 15.148438 C 196.386719 16.484375 195.601562 17.667969 194.585938 18.695312 C 193.363281 19.929688 191.929688 20.828125 190.28125 21.394531 L 190.28125 37.195312 L 233.992188 91.367188 L 233.992188 31.109375 C 233.453125 30.929688 232.925781 30.710938 232.417969 30.449219 C 231.910156 30.1875 231.429688 29.886719 230.96875 29.550781 C 230.507812 29.214844 230.074219 28.839844 229.671875 28.4375 C 229.269531 28.03125 228.902344 27.597656 228.570312 27.132812 C 228.234375 26.671875 227.9375 26.183594 227.679688 25.675781 C 227.421875 25.167969 227.207031 24.640625 227.03125 24.097656 C 226.855469 23.554688 226.722656 23 226.636719 22.433594 C 226.546875 21.871094 226.503906 21.304688 226.503906 20.734375 C 226.511719 19.289062 226.789062 17.902344 227.339844 16.566406 C 227.890625 15.234375 228.675781 14.054688 229.6875 13.027344 C 230.449219 12.257812 231.304688 11.621094 232.257812 11.105469 C 233.210938 10.59375 234.214844 10.230469 235.277344 10.019531 C 236.335938 9.804688 237.402344 9.75 238.480469 9.855469 C 239.554688 9.960938 240.59375 10.222656 241.589844 10.636719 C 242.589844 11.050781 243.507812 11.597656 244.34375 12.285156 C 245.175781 12.972656 245.894531 13.765625 246.492188 14.667969 C 247.089844 15.566406 247.542969 16.535156 247.855469 17.570312 C 248.164062 18.605469 248.316406 19.664062 248.3125 20.746094 C 248.304688 22.1875 248.019531 23.570312 247.460938 24.898438 C 246.902344 26.226562 246.109375 27.398438 245.085938 28.410156 C 243.863281 29.652344 242.429688 30.550781 240.78125 31.109375 L 240.78125 51.878906 L 257.367188 40.757812 C 256.796875 39.40625 256.511719 37.992188 256.515625 36.523438 C 256.519531 35.078125 256.796875 33.683594 257.347656 32.347656 C 257.898438 31.011719 258.683594 29.828125 259.703125 28.804688 C 260.722656 27.777344 261.898438 26.988281 263.234375 26.4375 C 264.570312 25.882812 265.960938 25.613281 267.40625 25.617188 C 268.855469 25.621094 270.246094 25.898438 271.582031 26.453125 C 272.917969 27.003906 274.097656 27.785156 275.128906 28.804688 C 276.152344 29.820312 276.941406 31 277.492188 32.335938 C 278.046875 33.671875 278.320312 35.0625 278.3125 36.507812 C 278.3125 37.957031 278.039062 39.347656 277.484375 40.683594 C 276.933594 42.023438 276.148438 43.203125 275.128906 44.226562 C 274.105469 45.253906 272.925781 46.042969 271.589844 46.597656 C 270.25 47.148438 268.855469 47.421875 267.40625 47.414062 C 265.429688 47.40625 263.585938 46.90625 261.875 45.914062 L 240.699219 60.042969 L 240.699219 99.761719 L 260.527344 122.433594 L 262.953125 108.9375 C 263.105469 108.160156 263.480469 107.515625 264.074219 106.996094 L 274.980469 97.546875 L 274.980469 77.953125 C 273.320312 77.410156 271.886719 76.507812 270.675781 75.253906 C 269.648438 74.234375 268.859375 73.054688 268.308594 71.71875 C 267.753906 70.382812 267.480469 68.992188 267.488281 67.546875 C 267.496094 66.105469 267.773438 64.714844 268.324219 63.382812 C 268.875 62.046875 269.660156 60.867188 270.675781 59.84375 C 271.4375 59.082031 272.292969 58.449219 273.242188 57.941406 C 274.191406 57.433594 275.195312 57.078125 276.25 56.867188 C 277.304688 56.660156 278.367188 56.609375 279.441406 56.714844 C 280.511719 56.820312 281.542969 57.078125 282.539062 57.492188 C 283.53125 57.902344 284.445312 58.453125 285.277344 59.132812 C 286.109375 59.816406 286.824219 60.605469 287.421875 61.5 C 288.019531 62.394531 288.476562 63.359375 288.789062 64.386719 C 289.101562 65.417969 289.257812 66.472656 289.257812 67.546875 C 289.257812 68.117188 289.214844 68.6875 289.125 69.25 C 289.035156 69.8125 288.90625 70.367188 288.730469 70.910156 C 288.554688 71.453125 288.335938 71.980469 288.078125 72.492188 C 287.820312 73 287.527344 73.484375 287.191406 73.949219 C 286.859375 74.410156 286.488281 74.847656 286.085938 75.25 C 285.683594 75.65625 285.253906 76.027344 284.792969 76.367188 C 284.332031 76.703125 283.847656 77.003906 283.339844 77.265625 C 282.832031 77.527344 282.308594 77.746094 281.765625 77.925781 L 281.765625 91.636719 L 302.886719 73.351562 C 302.65625 72.9375 302.453125 72.515625 302.277344 72.078125 C 302.101562 71.640625 301.957031 71.191406 301.839844 70.734375 C 301.722656 70.277344 301.636719 69.816406 301.578125 69.347656 C 301.523438 68.878906 301.496094 68.410156 301.5 67.9375 C 301.503906 67.46875 301.539062 67 301.601562 66.53125 C 301.667969 66.066406 301.761719 65.605469 301.886719 65.148438 C 302.011719 64.695312 302.167969 64.25 302.351562 63.816406 C 302.53125 63.382812 302.742188 62.960938 302.980469 62.550781 C 303.21875 62.144531 303.480469 61.753906 303.769531 61.382812 C 304.058594 61.007812 304.367188 60.65625 304.703125 60.324219 C 305.035156 59.992188 305.390625 59.679688 305.765625 59.394531 C 306.140625 59.109375 306.53125 58.847656 306.941406 58.613281 C 307.347656 58.375 307.769531 58.167969 308.207031 57.988281 C 308.640625 57.804688 309.085938 57.65625 309.542969 57.53125 C 309.996094 57.410156 310.457031 57.316406 310.925781 57.253906 C 311.394531 57.191406 311.863281 57.15625 312.332031 57.15625 C 313.777344 57.164062 315.167969 57.441406 316.503906 57.992188 C 317.839844 58.542969 319.023438 59.328125 320.054688 60.339844 C 320.5 60.789062 320.90625 61.269531 321.269531 61.789062 C 321.636719 62.304688 321.953125 62.847656 322.222656 63.421875 C 322.492188 63.996094 322.707031 64.585938 322.875 65.195312 C 323.042969 65.804688 323.152344 66.425781 323.210938 67.058594 C 323.269531 67.6875 323.273438 68.316406 323.222656 68.949219 C 323.171875 69.578125 323.066406 70.199219 322.90625 70.8125 C 322.75 71.425781 322.535156 72.019531 322.273438 72.59375 C 322.011719 73.167969 321.699219 73.71875 321.34375 74.238281 C 320.984375 74.761719 320.582031 75.246094 320.140625 75.699219 C 319.699219 76.152344 319.21875 76.558594 318.703125 76.929688 C 318.191406 77.296875 317.648438 77.617188 317.078125 77.890625 C 316.507812 78.167969 315.917969 78.390625 315.308594 78.5625 C 314.699219 78.730469 314.082031 78.847656 313.453125 78.914062 C 312.820312 78.976562 312.191406 78.984375 311.5625 78.9375 C 310.929688 78.894531 310.308594 78.792969 309.695312 78.640625 C 309.082031 78.484375 308.484375 78.277344 307.90625 78.019531 L 280.78125 101.449219 C 280.65625 101.570312 280.519531 101.683594 280.375 101.785156 L 269.363281 111.230469 L 265.855469 130.449219 C 265.855469 130.449219 265.855469 130.558594 265.855469 130.636719 L 261.390625 155.359375 L 280.429688 138.046875 C 280.507812 137.9375 280.605469 137.851562 280.726562 137.789062 L 313.117188 108.261719 C 313.757812 107.664062 314.519531 107.367188 315.398438 107.371094 L 333.722656 107.371094 C 334.265625 105.707031 335.164062 104.269531 336.421875 103.054688 C 337.449219 102.039062 338.628906 101.265625 339.964844 100.722656 C 341.300781 100.183594 342.6875 99.921875 344.128906 99.9375 C 345.570312 99.9375 346.960938 100.214844 348.296875 100.769531 C 349.628906 101.320312 350.808594 102.105469 351.835938 103.121094 C 352.859375 104.125 353.648438 105.285156 354.210938 106.605469 C 354.773438 107.921875 355.058594 109.300781 355.074219 110.730469 C 355.070312 112.179688 354.792969 113.570312 354.242188 114.90625 C 353.691406 116.242188 352.90625 117.425781 351.886719 118.453125 C 350.867188 119.492188 349.679688 120.289062 348.335938 120.851562 C 346.988281 121.410156 345.585938 121.683594 344.128906 121.675781 C 343.558594 121.675781 342.988281 121.632812 342.425781 121.546875 C 341.863281 121.457031 341.308594 121.324219 340.765625 121.148438 C 340.222656 120.976562 339.695312 120.757812 339.183594 120.5 C 338.675781 120.242188 338.191406 119.945312 337.726562 119.613281 C 337.265625 119.277344 336.828125 118.910156 336.425781 118.507812 C 336.019531 118.105469 335.648438 117.675781 335.308594 117.214844 C 334.972656 116.753906 334.671875 116.269531 334.410156 115.761719 C 334.148438 115.253906 333.929688 114.730469 333.75 114.1875 L 316.746094 114.1875 L 291.617188 137.128906 L 311.402344 137.128906 C 311.945312 135.472656 312.847656 134.035156 314.101562 132.824219 C 315.113281 131.800781 316.285156 131.011719 317.613281 130.457031 C 318.941406 129.902344 320.328125 129.625 321.765625 129.625 C 323.214844 129.625 324.605469 129.898438 325.941406 130.453125 C 327.28125 131.003906 328.460938 131.789062 329.484375 132.8125 C 330.25 133.570312 330.890625 134.429688 331.398438 135.378906 C 331.910156 136.332031 332.269531 137.335938 332.484375 138.394531 C 332.695312 139.453125 332.746094 140.519531 332.640625 141.59375 C 332.535156 142.667969 332.277344 143.707031 331.863281 144.703125 C 331.449219 145.699219 330.898438 146.617188 330.214844 147.449219 C 329.527344 148.28125 328.734375 149 327.835938 149.597656 C 326.9375 150.195312 325.972656 150.648438 324.9375 150.960938 C 323.902344 151.269531 322.847656 151.425781 321.765625 151.421875 C 321.195312 151.421875 320.628906 151.378906 320.066406 151.289062 C 319.5 151.203125 318.945312 151.070312 318.402344 150.898438 C 317.859375 150.722656 317.335938 150.503906 316.824219 150.246094 C 316.316406 149.988281 315.832031 149.695312 315.367188 149.359375 C 314.90625 149.023438 314.472656 148.65625 314.066406 148.253906 C 313.664062 147.851562 313.292969 147.421875 312.957031 146.960938 C 312.617188 146.5 312.320312 146.015625 312.058594 145.507812 C 311.800781 145 311.582031 144.472656 311.402344 143.929688 L 284.15625 143.929688 L 259.433594 166.414062 L 257.03125 179.746094 C 257.023438 179.875 257 180 256.960938 180.125 L 253.441406 199.679688 C 256.570312 199.324219 259.628906 199.648438 262.617188 200.652344 L 272.765625 185.804688 C 273.085938 185.335938 273.5 184.972656 274.003906 184.714844 C 274.507812 184.457031 275.046875 184.335938 275.613281 184.347656 L 296.449219 183.675781 L 313.304688 165.359375 C 313.972656 164.640625 314.792969 164.277344 315.773438 164.269531 L 352.347656 164.269531 C 352.527344 163.726562 352.746094 163.199219 353.007812 162.695312 C 353.269531 162.1875 353.570312 161.703125 353.90625 161.242188 C 354.246094 160.78125 354.617188 160.351562 355.019531 159.949219 C 355.425781 159.546875 355.859375 159.175781 356.324219 158.84375 C 356.785156 158.507812 357.273438 158.210938 357.78125 157.953125 C 358.292969 157.695312 358.816406 157.480469 359.359375 157.304688 C 359.90625 157.128906 360.457031 157 361.023438 156.910156 C 361.585938 156.820312 362.152344 156.777344 362.726562 156.777344 C 364.171875 156.777344 365.5625 157.054688 366.898438 157.605469 C 368.238281 158.15625 369.417969 158.941406 370.445312 159.964844 C 371.472656 160.984375 372.261719 162.164062 372.8125 163.503906 C 373.367188 164.839844 373.636719 166.234375 373.628906 167.683594 C 373.621094 169.128906 373.34375 170.519531 372.792969 171.851562 C 372.242188 173.1875 371.457031 174.371094 370.445312 175.402344 C 369.421875 176.429688 368.242188 177.21875 366.90625 177.769531 C 365.566406 178.324219 364.171875 178.59375 362.726562 178.585938 C 362.152344 178.585938 361.585938 178.542969 361.019531 178.457031 C 360.457031 178.367188 359.902344 178.234375 359.359375 178.058594 C 358.8125 177.882812 358.289062 177.667969 357.777344 177.410156 C 357.269531 177.148438 356.78125 176.851562 356.316406 176.519531 C 355.855469 176.183594 355.421875 175.816406 355.015625 175.410156 C 354.609375 175.007812 354.238281 174.578125 353.902344 174.113281 C 353.566406 173.652344 353.265625 173.167969 353.003906 172.660156 C 352.746094 172.152344 352.523438 171.625 352.347656 171.082031 L 317.257812 171.082031 L 305.894531 183.417969 L 324.140625 182.808594 C 325.074219 182.71875 325.886719 182.984375 326.585938 183.605469 L 343.183594 198.855469 L 352.132812 199.34375 C 352.699219 197.761719 353.574219 196.375 354.761719 195.183594 C 355.078125 194.867188 355.410156 194.570312 355.761719 194.292969 C 356.113281 194.015625 356.480469 193.761719 356.863281 193.53125 C 357.246094 193.300781 357.644531 193.09375 358.050781 192.910156 C 358.460938 192.726562 358.878906 192.570312 359.304688 192.441406 C 359.734375 192.308594 360.167969 192.203125 360.609375 192.125 C 361.050781 192.046875 361.492188 191.996094 361.941406 191.976562 C 362.386719 191.953125 362.832031 191.957031 363.28125 191.988281 C 363.726562 192.019531 364.167969 192.078125 364.609375 192.164062 C 365.046875 192.25 365.480469 192.363281 365.902344 192.503906 C 366.328125 192.644531 366.742188 192.808594 367.148438 193 C 367.554688 193.191406 367.945312 193.402344 368.324219 193.644531 C 368.703125 193.882812 369.066406 194.144531 369.410156 194.425781 C 369.757812 194.710938 370.085938 195.011719 370.394531 195.335938 C 370.703125 195.660156 370.992188 196.003906 371.257812 196.359375 C 371.523438 196.71875 371.769531 197.09375 371.988281 197.484375 C 372.210938 197.875 372.40625 198.273438 372.578125 198.6875 C 372.75 199.101562 372.894531 199.523438 373.011719 199.953125 C 373.132812 200.386719 373.226562 200.824219 373.289062 201.265625 C 373.355469 201.707031 373.394531 202.152344 373.40625 202.601562 C 373.417969 203.046875 373.398438 203.492188 373.355469 203.9375 C 373.3125 204.382812 373.238281 204.824219 373.140625 205.261719 C 373.042969 205.699219 372.917969 206.128906 372.765625 206.546875 C 372.617188 206.96875 372.441406 207.378906 372.238281 207.777344 C 372.035156 208.179688 371.8125 208.5625 371.5625 208.9375 C 371.3125 209.308594 371.042969 209.664062 370.75 210 C 370.457031 210.339844 370.144531 210.65625 369.8125 210.957031 C 369.480469 211.257812 369.128906 211.535156 368.765625 211.792969 C 368.398438 212.050781 368.015625 212.28125 367.621094 212.492188 C 367.226562 212.703125 366.820312 212.886719 366.402344 213.046875 C 365.984375 213.207031 365.558594 213.339844 365.125 213.449219 C 364.691406 213.558594 364.25 213.636719 363.804688 213.691406 C 363.363281 213.742188 362.914062 213.769531 362.46875 213.769531 C 361.890625 213.769531 361.316406 213.722656 360.746094 213.632812 C 360.175781 213.542969 359.617188 213.410156 359.070312 213.230469 C 358.519531 213.050781 357.988281 212.828125 357.476562 212.5625 C 356.960938 212.300781 356.472656 211.996094 356.007812 211.652344 C 355.542969 211.3125 355.105469 210.933594 354.703125 210.523438 C 354.296875 210.113281 353.925781 209.671875 353.589844 209.203125 C 353.257812 208.730469 352.960938 208.238281 352.703125 207.71875 C 352.449219 207.203125 352.234375 206.667969 352.0625 206.117188 L 341.726562 205.589844 C 340.867188 205.597656 340.128906 205.300781 339.511719 204.699219 L 323.0625 189.558594 L 298.246094 190.355469 L 297.90625 190.355469 L 277.382812 191.027344 L 268.351562 204.28125 L 268.421875 204.363281 C 269.492188 205.449219 270.292969 206.707031 270.820312 208.140625 C 271.386719 209.855469 271.632812 211.617188 271.558594 213.421875 C 271.488281 215.226562 271.101562 216.960938 270.402344 218.625 C 268.773438 222.707031 266.375 226.269531 263.210938 229.316406 C 258.238281 234.113281 252.535156 237.769531 246.097656 240.285156 L 245.910156 241.367188 C 243.816406 252.648438 236.019531 261.609375 227.554688 269.207031 C 228.675781 276.128906 233.695312 301.59375 247.070312 312.390625 C 262.320312 324.726562 292.953125 328.992188 295.398438 329.328125 C 296.363281 329.398438 297.152344 329.8125 297.757812 330.570312 C 298.039062 330.921875 298.238281 331.308594 298.363281 331.742188 C 298.488281 332.171875 298.527344 332.609375 298.476562 333.054688 C 298.425781 333.5 298.292969 333.917969 298.078125 334.308594 C 297.863281 334.703125 297.582031 335.039062 297.234375 335.320312 C 289.453125 341.636719 281.199219 347.257812 272.472656 352.183594 C 263.742188 357.105469 254.664062 361.265625 245.234375 364.660156 C 235.855469 368.015625 226.261719 370.546875 216.449219 372.257812 C 206.636719 373.96875 196.75 374.832031 186.789062 374.847656 C 181.765625 374.839844 176.753906 374.621094 171.75 374.1875 C 166.746094 373.753906 161.769531 373.105469 156.820312 372.25 C 151.871094 371.394531 146.96875 370.328125 142.113281 369.054688 C 137.253906 367.78125 132.457031 366.304688 127.726562 364.621094 C 122.992188 362.941406 118.339844 361.0625 113.769531 358.984375 C 109.195312 356.910156 104.71875 354.640625 100.339844 352.183594 C 95.960938 349.726562 91.691406 347.085938 87.535156 344.269531 C 83.382812 341.449219 79.351562 338.457031 75.453125 335.292969 C 75.101562 335.011719 74.820312 334.671875 74.605469 334.28125 C 74.386719 333.886719 74.257812 333.464844 74.207031 333.019531 C 74.15625 332.574219 74.195312 332.132812 74.320312 331.703125 C 74.445312 331.273438 74.644531 330.878906 74.925781 330.527344 C 75.527344 329.761719 76.316406 329.347656 77.289062 329.289062 C 79.5 328.992188 105.085938 325.441406 121.160156 315.507812 L 121.457031 315.320312 C 122.855469 314.414062 124.207031 313.4375 125.503906 312.390625 C 138.878906 301.59375 143.898438 276.089844 145.035156 269.207031 C 136.597656 261.636719 128.839844 252.648438 126.667969 241.367188 L 126.476562 240.285156 C 120.023438 237.761719 114.304688 234.09375 109.324219 229.273438 C 106.207031 226.25 103.828125 222.722656 102.199219 218.695312 C 101.496094 217.03125 101.109375 215.292969 101.039062 213.488281 C 100.96875 211.683594 101.222656 209.921875 101.792969 208.207031 C 102.300781 206.765625 103.097656 205.507812 104.183594 204.429688 C 104.414062 204.199219 104.601562 204.011719 104.816406 203.824219 L 96.125 191.097656 L 75.574219 190.355469 L 75.234375 190.355469 L 50.511719 189.558594 L 34.089844 204.699219 C 33.464844 205.277344 32.726562 205.574219 31.875 205.589844 L 21.539062 206.117188 C 21.03125 207.832031 20.148438 209.324219 18.894531 210.597656 C 17.871094 211.625 16.691406 212.414062 15.355469 212.964844 C 14.015625 213.519531 12.621094 213.789062 11.175781 213.78125 C 9.722656 213.785156 8.320312 213.511719 6.976562 212.960938 C 5.632812 212.410156 4.445312 211.621094 3.414062 210.597656 C 2.652344 209.835938 2.019531 208.980469 1.515625 208.03125 C 1.007812 207.078125 0.648438 206.078125 0.441406 205.019531 C 0.230469 203.964844 0.179688 202.902344 0.285156 201.832031 C 0.390625 200.761719 0.652344 199.726562 1.0625 198.734375 C 1.476562 197.738281 2.023438 196.824219 2.707031 195.992188 C 3.390625 195.164062 4.179688 194.449219 5.074219 193.847656 C 5.96875 193.25 6.929688 192.796875 7.960938 192.484375 C 8.992188 192.171875 10.042969 192.015625 11.121094 192.015625 C 12.578125 191.996094 13.980469 192.261719 15.328125 192.8125 C 16.675781 193.363281 17.863281 194.152344 18.894531 195.183594 C 20.082031 196.367188 20.949219 197.753906 21.484375 199.34375 L 30.433594 198.855469 L 46.976562 183.605469 C 47.652344 182.972656 48.453125 182.671875 49.378906 182.703125 L 67.625 183.308594 L 56.273438 170.976562 L 21.1875 170.976562 C 21.007812 171.519531 20.789062 172.042969 20.527344 172.550781 C 20.269531 173.0625 19.96875 173.546875 19.632812 174.007812 C 19.292969 174.46875 18.921875 174.902344 18.519531 175.304688 C 18.113281 175.707031 17.679688 176.074219 17.214844 176.410156 C 16.753906 176.746094 16.265625 177.042969 15.757812 177.300781 C 15.246094 177.558594 14.71875 177.777344 14.175781 177.953125 C 13.632812 178.125 13.078125 178.257812 12.515625 178.347656 C 11.949219 178.4375 11.382812 178.480469 10.808594 178.476562 C 9.363281 178.472656 7.972656 178.195312 6.636719 177.644531 C 5.300781 177.09375 4.121094 176.308594 3.089844 175.292969 C 2.109375 174.214844 1.351562 172.996094 0.820312 171.636719 C 0.285156 170.28125 0.0117188 168.871094 0 167.414062 C 0.00390625 165.96875 0.285156 164.578125 0.835938 163.242188 C 1.386719 161.90625 2.167969 160.722656 3.183594 159.691406 C 4.207031 158.667969 5.386719 157.875 6.722656 157.324219 C 8.0625 156.773438 9.457031 156.5 10.902344 156.507812 C 12.351562 156.511719 13.742188 156.789062 15.078125 157.339844 C 16.414062 157.890625 17.597656 158.675781 18.625 159.691406 C 19.859375 160.917969 20.757812 162.351562 21.324219 164 L 57.839844 164 C 58.824219 163.996094 59.648438 164.363281 60.308594 165.089844 L 77.179688 183.402344 L 98.003906 184.078125 C 98.570312 184.0625 99.105469 184.183594 99.613281 184.445312 C 100.117188 184.703125 100.53125 185.066406 100.851562 185.535156 L 110.851562 200.21875 C 113.613281 199.421875 116.425781 199.191406 119.285156 199.515625 L 115.722656 179.839844 L 115.722656 179.773438 L 113.105469 165.308594 L 89.460938 143.824219 L 62.226562 143.824219 C 62.046875 144.363281 61.828125 144.890625 61.566406 145.398438 C 61.304688 145.90625 61.003906 146.386719 60.667969 146.847656 C 60.328125 147.308594 59.957031 147.742188 59.550781 148.144531 C 59.148438 148.546875 58.714844 148.914062 58.25 149.246094 C 57.789062 149.582031 57.300781 149.878906 56.792969 150.136719 C 56.28125 150.394531 55.753906 150.609375 55.210938 150.785156 C 54.667969 150.960938 54.117188 151.09375 53.550781 151.179688 C 52.988281 151.269531 52.417969 151.3125 51.847656 151.3125 C 50.402344 151.308594 49.011719 151.035156 47.675781 150.480469 C 46.339844 149.929688 45.15625 149.144531 44.128906 148.128906 C 43.105469 147.109375 42.316406 145.929688 41.761719 144.59375 C 41.210938 143.257812 40.9375 141.867188 40.945312 140.421875 C 40.949219 138.976562 41.230469 137.585938 41.78125 136.25 C 42.332031 134.914062 43.113281 133.730469 44.128906 132.703125 C 45.148438 131.675781 46.328125 130.886719 47.667969 130.332031 C 49.007812 129.78125 50.402344 129.507812 51.847656 129.519531 C 53.292969 129.523438 54.683594 129.800781 56.019531 130.351562 C 57.355469 130.90625 58.539062 131.6875 59.566406 132.703125 C 60.800781 133.925781 61.703125 135.363281 62.265625 137.007812 L 82.011719 137.007812 L 56.867188 114.066406 L 39.824219 114.066406 C 39.625 114.675781 39.375 115.261719 39.070312 115.828125 C 38.765625 116.394531 38.417969 116.929688 38.019531 117.433594 C 37.621094 117.933594 37.183594 118.398438 36.703125 118.824219 C 36.222656 119.25 35.707031 119.632812 35.160156 119.96875 C 34.613281 120.300781 34.042969 120.585938 33.445312 120.820312 C 32.847656 121.054688 32.234375 121.234375 31.605469 121.359375 C 30.976562 121.484375 30.339844 121.554688 29.699219 121.566406 C 29.058594 121.582031 28.417969 121.539062 27.785156 121.4375 C 27.152344 121.339844 26.53125 121.183594 25.925781 120.976562 C 25.316406 120.765625 24.734375 120.507812 24.171875 120.195312 C 23.613281 119.882812 23.085938 119.523438 22.585938 119.117188 C 22.089844 118.710938 21.632812 118.265625 21.214844 117.777344 C 20.796875 117.292969 20.421875 116.773438 20.097656 116.21875 C 19.769531 115.667969 19.496094 115.089844 19.269531 114.488281 C 19.046875 113.890625 18.875 113.273438 18.761719 112.640625 C 18.644531 112.011719 18.585938 111.375 18.582031 110.730469 C 18.589844 109.285156 18.867188 107.894531 19.417969 106.558594 C 19.96875 105.222656 20.753906 104.042969 21.769531 103.011719 C 22.785156 101.992188 23.957031 101.203125 25.289062 100.652344 C 26.621094 100.101562 28.003906 99.824219 29.445312 99.828125 C 30.890625 99.832031 32.285156 100.109375 33.621094 100.660156 C 34.957031 101.210938 36.140625 101.996094 37.164062 103.011719 C 38.402344 104.238281 39.300781 105.671875 39.863281 107.316406 L 58.21875 107.316406 C 59.101562 107.320312 59.867188 107.621094 60.511719 108.222656 L 111.199219 154.335938 C 107.152344 131.554688 103.699219 112.675781 103.292969 110.3125 L 93.359375 101.730469 C 93.210938 101.625 93.105469 101.515625 92.957031 101.394531 L 65.75 77.886719 C 64.339844 78.507812 62.863281 78.816406 61.324219 78.816406 C 60.609375 78.8125 59.90625 78.738281 59.207031 78.59375 C 58.511719 78.449219 57.835938 78.238281 57.179688 77.960938 C 56.523438 77.6875 55.898438 77.347656 55.308594 76.949219 C 54.71875 76.550781 54.175781 76.097656 53.671875 75.59375 C 53.171875 75.085938 52.726562 74.535156 52.332031 73.941406 C 51.941406 73.347656 51.609375 72.722656 51.339844 72.0625 C 51.070312 71.40625 50.867188 70.726562 50.730469 70.027344 C 50.59375 69.328125 50.523438 68.625 50.527344 67.910156 C 50.527344 66.46875 50.804688 65.078125 51.359375 63.746094 C 51.910156 62.410156 52.695312 61.230469 53.710938 60.207031 C 54.726562 59.183594 55.902344 58.398438 57.230469 57.84375 C 58.5625 57.292969 59.949219 57.019531 61.390625 57.019531 C 62.835938 57.023438 64.226562 57.300781 65.5625 57.851562 C 66.898438 58.402344 68.082031 59.1875 69.109375 60.207031 C 69.527344 60.625 69.90625 61.074219 70.253906 61.554688 C 70.597656 62.035156 70.898438 62.539062 71.164062 63.070312 C 71.425781 63.601562 71.640625 64.148438 71.816406 64.714844 C 71.988281 65.277344 72.113281 65.855469 72.195312 66.441406 C 72.273438 67.027344 72.304688 67.613281 72.289062 68.207031 C 72.273438 68.796875 72.207031 69.382812 72.09375 69.960938 C 71.984375 70.542969 71.824219 71.109375 71.621094 71.664062 C 71.417969 72.21875 71.167969 72.753906 70.878906 73.269531 L 91.929688 91.554688 L 91.929688 77.886719 C 90.84375 77.523438 89.835938 77.007812 88.910156 76.332031 C 87.988281 75.65625 87.1875 74.851562 86.515625 73.925781 C 85.84375 72.996094 85.332031 71.988281 84.976562 70.898438 C 84.621094 69.808594 84.441406 68.691406 84.441406 67.546875 C 84.445312 66.101562 84.722656 64.710938 85.273438 63.375 C 85.828125 62.039062 86.609375 60.855469 87.625 59.828125 C 88.644531 58.800781 89.824219 58.011719 91.164062 57.460938 C 92.503906 56.90625 93.894531 56.636719 95.34375 56.644531 C 96.789062 56.648438 98.179688 56.925781 99.515625 57.480469 C 100.851562 58.03125 102.035156 58.8125 103.0625 59.828125 C 104.089844 60.847656 104.878906 62.027344 105.433594 63.367188 C 105.984375 64.707031 106.257812 66.097656 106.246094 67.546875 C 106.242188 68.992188 105.964844 70.382812 105.414062 71.71875 C 104.863281 73.054688 104.078125 74.238281 103.0625 75.265625 C 101.839844 76.5 100.402344 77.402344 98.757812 77.964844 L 98.757812 97.441406 L 108.203125 105.644531 C 109.554688 106.765625 109.851562 109.085938 110.308594 111.257812 L 112.441406 123.257812 L 132.996094 99.71875 L 132.996094 60.042969 L 111.902344 45.957031 C 110.191406 46.96875 108.34375 47.46875 106.355469 47.453125 C 104.910156 47.449219 103.519531 47.171875 102.183594 46.621094 C 100.84375 46.070312 99.664062 45.285156 98.636719 44.269531 C 97.605469 43.242188 96.8125 42.054688 96.261719 40.710938 C 95.707031 39.363281 95.4375 37.964844 95.453125 36.507812 C 95.457031 35.0625 95.734375 33.671875 96.285156 32.335938 C 96.835938 31 97.621094 29.816406 98.636719 28.789062 C 99.65625 27.761719 100.835938 26.972656 102.175781 26.421875 C 103.515625 25.867188 104.90625 25.597656 106.355469 25.605469 C 107.800781 25.609375 109.191406 25.886719 110.527344 26.441406 C 111.863281 26.992188 113.046875 27.773438 114.074219 28.789062 C 115.101562 29.808594 115.890625 30.988281 116.445312 32.328125 C 116.996094 33.667969 117.269531 35.0625 117.261719 36.507812 C 117.269531 37.980469 116.980469 39.394531 116.394531 40.746094 L 132.996094 51.878906 L 132.996094 31.109375 C 132.453125 30.929688 131.929688 30.710938 131.421875 30.449219 C 130.914062 30.1875 130.433594 29.890625 129.972656 29.550781 C 129.511719 29.214844 129.082031 28.84375 128.679688 28.441406 C 128.277344 28.035156 127.910156 27.601562 127.574219 27.140625 C 127.242188 26.675781 126.945312 26.191406 126.6875 25.683594 C 126.429688 25.175781 126.210938 24.648438 126.035156 24.105469 C 125.859375 23.5625 125.726562 23.011719 125.640625 22.445312 C 125.550781 21.882812 125.503906 21.316406 125.503906 20.746094 C 125.507812 19.300781 125.785156 17.914062 126.335938 16.578125 C 126.890625 15.246094 127.671875 14.066406 128.691406 13.039062 C 129.710938 12.011719 130.890625 11.222656 132.230469 10.671875 C 133.570312 10.121094 134.960938 9.847656 136.410156 9.855469 C 137.855469 9.859375 139.242188 10.136719 140.578125 10.6875 C 141.910156 11.238281 143.089844 12.023438 144.117188 13.039062 C 145.140625 14.058594 145.929688 15.238281 146.480469 16.574219 C 147.035156 17.910156 147.308594 19.300781 147.300781 20.746094 C 147.300781 21.316406 147.257812 21.882812 147.167969 22.445312 C 147.078125 23.011719 146.945312 23.5625 146.769531 24.105469 C 146.59375 24.648438 146.378906 25.175781 146.121094 25.683594 C 145.863281 26.191406 145.566406 26.675781 145.230469 27.140625 C 144.898438 27.601562 144.53125 28.035156 144.128906 28.441406 C 143.726562 28.84375 143.292969 29.214844 142.835938 29.550781 C 142.375 29.890625 141.890625 30.1875 141.382812 30.449219 C 140.875 30.710938 140.351562 30.929688 139.8125 31.109375 L 139.8125 91.367188 L 153.601562 74.296875 C 152.8125 73.332031 152.207031 72.265625 151.785156 71.09375 C 151.363281 69.921875 151.148438 68.710938 151.148438 67.464844 C 151.152344 66.019531 151.429688 64.628906 151.980469 63.292969 C 152.53125 61.957031 153.316406 60.777344 154.332031 59.746094 C 155.351562 58.71875 156.53125 57.929688 157.871094 57.378906 C 159.210938 56.824219 160.601562 56.554688 162.050781 56.5625 C 163.496094 56.566406 164.886719 56.847656 166.222656 57.398438 C 167.558594 57.949219 168.742188 58.730469 169.769531 59.746094 C 170.53125 60.507812 171.164062 61.363281 171.675781 62.3125 C 172.183594 63.257812 172.542969 64.261719 172.753906 65.316406 C 172.964844 66.371094 173.019531 67.433594 172.914062 68.503906 C 172.808594 69.574219 172.554688 70.609375 172.144531 71.605469 C 171.734375 72.597656 171.1875 73.511719 170.507812 74.34375 C 169.824219 75.179688 169.039062 75.894531 168.144531 76.496094 C 167.25 77.09375 166.289062 77.550781 165.261719 77.867188 C 164.234375 78.183594 163.179688 78.339844 162.105469 78.34375 C 161.148438 78.355469 160.214844 78.230469 159.296875 77.964844 L 139.257812 102.796875 C 139.164062 102.929688 139.058594 103.054688 138.945312 103.175781 L 138.730469 103.429688 C 138.664062 103.503906 138.601562 103.582031 138.542969 103.660156 L 114.007812 131.71875 C 115.613281 140.636719 117.515625 151.378906 119.582031 162.757812 C 119.625 162.886719 119.652344 163.023438 119.664062 163.160156 L 121.457031 173.039062 L 154.238281 147.398438 L 156.542969 122.945312 C 155.449219 122.417969 154.476562 121.722656 153.628906 120.855469 C 152.601562 119.832031 151.8125 118.652344 151.261719 117.316406 C 150.707031 115.976562 150.4375 114.582031 150.445312 113.132812 C 150.449219 111.6875 150.726562 110.296875 151.277344 108.960938 C 151.828125 107.625 152.613281 106.441406 153.628906 105.414062 C 154.648438 104.390625 155.828125 103.601562 157.164062 103.050781 C 158.5 102.496094 159.890625 102.222656 161.335938 102.230469 C 162.78125 102.234375 164.171875 102.511719 165.507812 103.0625 C 166.84375 103.613281 168.027344 104.398438 169.054688 105.414062 C 169.558594 105.921875 170.011719 106.476562 170.40625 107.070312 C 170.804688 107.667969 171.140625 108.296875 171.414062 108.960938 C 171.6875 109.621094 171.890625 110.304688 172.03125 111.007812 C 172.171875 111.707031 172.242188 112.417969 172.242188 113.132812 C 172.242188 113.851562 172.171875 114.558594 172.03125 115.261719 C 171.890625 115.964844 171.6875 116.648438 171.414062 117.308594 C 171.140625 117.972656 170.804688 118.601562 170.40625 119.199219 C 170.011719 119.792969 169.558594 120.347656 169.054688 120.855469 C 167.433594 122.46875 165.5 123.480469 163.25 123.890625 L 161.566406 141.570312 L 191.441406 118.15625 C 190.6875 116.632812 190.308594 115.023438 190.308594 113.324219 C 190.316406 111.878906 190.59375 110.488281 191.144531 109.152344 C 191.695312 107.816406 192.480469 106.632812 193.496094 105.605469 C 194.515625 104.578125 195.695312 103.789062 197.035156 103.234375 C 198.371094 102.683594 199.765625 102.410156 201.214844 102.417969 C 202.660156 102.425781 204.050781 102.703125 205.386719 103.253906 C 206.722656 103.804688 207.90625 104.589844 208.933594 105.605469 C 209.390625 106.058594 209.808594 106.550781 210.179688 107.082031 C 210.550781 107.609375 210.871094 108.167969 211.144531 108.753906 C 211.414062 109.34375 211.632812 109.949219 211.796875 110.574219 C 211.960938 111.199219 212.066406 111.835938 212.117188 112.480469 C 212.167969 113.125 212.160156 113.769531 212.097656 114.414062 C 212.03125 115.054688 211.910156 115.6875 211.734375 116.3125 C 211.558594 116.933594 211.328125 117.535156 211.042969 118.113281 C 210.757812 118.695312 210.421875 119.246094 210.039062 119.769531 C 209.65625 120.289062 209.230469 120.773438 208.761719 121.21875 C 208.292969 121.664062 207.789062 122.0625 207.25 122.417969 C 206.707031 122.773438 206.140625 123.078125 205.546875 123.332031 C 204.949219 123.585938 204.335938 123.785156 203.707031 123.929688 C 203.078125 124.074219 202.4375 124.160156 201.792969 124.191406 C 201.148438 124.222656 200.503906 124.195312 199.863281 124.113281 C 199.222656 124.027344 198.59375 123.890625 197.976562 123.691406 C 197.359375 123.496094 196.765625 123.246094 196.195312 122.945312 L 122.726562 180.609375 C 124.074219 188.328125 125.503906 195.96875 126.773438 203.082031 C 126.773438 203.160156 126.773438 203.242188 126.773438 203.308594 C 129.917969 220.652344 132.507812 234.929688 133.441406 240.03125 C 135.882812 253.175781 148.691406 263.550781 159.082031 271.988281 C 160.605469 273.214844 162.117188 274.457031 163.128906 275.28125 C 168.527344 279.773438 172.578125 282.472656 176.097656 284.039062 C 179.390625 285.417969 182.816406 286.058594 186.382812 285.953125 Z M 206.625 137.5625 C 206.234375 137.578125 205.851562 137.648438 205.476562 137.773438 C 205.105469 137.902344 204.757812 138.078125 204.4375 138.300781 C 204.113281 138.527344 203.832031 138.792969 203.585938 139.101562 C 203.339844 139.40625 203.140625 139.742188 202.992188 140.105469 C 202.84375 140.46875 202.746094 140.84375 202.703125 141.234375 C 202.664062 141.628906 202.675781 142.015625 202.746094 142.402344 C 202.816406 142.789062 202.9375 143.160156 203.113281 143.511719 C 203.289062 143.863281 203.511719 144.183594 203.777344 144.46875 C 203.96875 144.660156 204.179688 144.832031 204.40625 144.980469 C 204.632812 145.128906 204.871094 145.257812 205.121094 145.359375 C 205.371094 145.460938 205.628906 145.539062 205.894531 145.59375 C 206.160156 145.644531 206.429688 145.671875 206.699219 145.671875 C 206.96875 145.671875 207.238281 145.644531 207.503906 145.59375 C 207.769531 145.539062 208.027344 145.460938 208.277344 145.359375 C 208.53125 145.257812 208.769531 145.128906 208.992188 144.980469 C 209.21875 144.832031 209.429688 144.660156 209.621094 144.46875 C 210.433594 143.667969 210.832031 142.695312 210.824219 141.554688 C 210.824219 140.414062 210.425781 139.4375 209.621094 138.628906 C 208.792969 137.828125 207.804688 137.449219 206.652344 137.492188 Z M 206.625 137.5625 " fill-opacity="1" fill-rule="nonzero"/></g></svg>