<svg xmlns="http://www.w3.org/2000/svg" xmlns:xlink="http://www.w3.org/1999/xlink" width="500" zoomAndPan="magnify" viewBox="0 0 375 374.999991" height="500" preserveAspectRatio="xMidYMid meet" version="1.0"><defs><clipPath id="5ac79e3056"><path d="M 0 0 L 187.5 0 L 187.5 187.5 L 0 187.5 Z M 0 0 " clip-rule="nonzero"/></clipPath><clipPath id="c4617d9888"><path d="M 187.5 0 L 375 0 L 375 187.5 L 187.5 187.5 Z M 187.5 0 " clip-rule="nonzero"/></clipPath><clipPath id="5f62c566f8"><path d="M 187.5 187.5 L 375 187.5 L 375 375 L 187.5 375 Z M 187.5 187.5 " clip-rule="nonzero"/></clipPath><clipPath id="97679c09e8"><path d="M 0 187.5 L 187.5 187.5 L 187.5 375 L 0 375 Z M 0 187.5 " clip-rule="nonzero"/></clipPath></defs><g clip-path="url(#5ac79e3056)"><path fill="#d6dfe0" d="M 43.414062 135.515625 L 51.984375 135.515625 L 51.984375 144.910156 L 42.589844 144.910156 L 42.589844 135.515625 Z M 0.824219 0 L 187.5 0 L 187.5 187.5 L 0 187.5 L 0 0 Z M 184.683594 1.648438 L 1.648438 1.648438 L 1.648438 13.605469 L 172.726562 13.605469 Z M 1.648438 15.257812 L 1.648438 29.605469 L 156.726562 29.605469 L 171.078125 15.257812 Z M 1.648438 31.253906 L 1.648438 45.601562 L 140.730469 45.601562 L 155.078125 31.253906 Z M 1.648438 47.25 L 1.648438 61.601562 L 124.730469 61.601562 L 139.082031 47.25 Z M 1.648438 63.25 L 1.648438 77.597656 L 108.734375 77.597656 L 123.082031 63.25 Z M 1.648438 79.25 L 1.648438 92.925781 L 93.40625 92.925781 L 107.085938 79.25 Z M 1.648438 94.574219 L 1.648438 185.847656 L 92.925781 185.847656 L 92.925781 94.574219 Z M 94.574219 185.847656 L 108.269531 185.847656 L 108.269531 80.398438 L 94.574219 94.089844 Z M 109.917969 185.847656 L 124.265625 185.847656 L 124.265625 64.398438 L 109.917969 78.746094 Z M 125.914062 185.847656 L 140.265625 185.847656 L 140.265625 48.402344 L 125.914062 62.75 Z M 141.914062 185.847656 L 156.261719 185.847656 L 156.261719 32.402344 L 141.914062 46.75 Z M 157.910156 185.847656 L 172.261719 185.847656 L 172.261719 16.40625 L 157.910156 30.753906 Z M 173.910156 185.847656 L 185.847656 185.847656 L 185.847656 2.816406 L 173.910156 14.753906 Z M 14.722656 106.820312 L 80.679688 106.820312 L 80.679688 173.601562 L 13.894531 173.601562 L 13.894531 106.820312 Z M 79.027344 108.46875 L 15.546875 108.46875 L 15.546875 171.953125 L 79.027344 171.953125 Z M 29.066406 121.167969 L 66.332031 121.167969 L 66.332031 159.257812 L 28.242188 159.257812 L 28.242188 121.167969 Z M 64.683594 122.816406 L 29.890625 122.816406 L 29.890625 157.605469 L 64.683594 157.605469 Z M 50.335938 137.164062 L 44.238281 137.164062 L 44.238281 143.261719 L 50.335938 143.261719 Z M 50.335938 137.164062 " fill-opacity="1" fill-rule="nonzero"/></g><g clip-path="url(#c4617d9888)"><path fill="#d6dfe0" d="M 331.585938 51.984375 L 323.015625 51.984375 L 323.015625 42.589844 L 332.410156 42.589844 L 332.410156 51.984375 Z M 374.175781 187.5 L 187.5 187.5 L 187.5 0 L 375 0 L 375 187.5 Z M 190.316406 185.851562 L 373.351562 185.851562 L 373.351562 173.894531 L 202.273438 173.894531 Z M 373.351562 172.242188 L 373.351562 157.894531 L 218.273438 157.894531 L 203.921875 172.242188 Z M 373.351562 156.246094 L 373.351562 141.898438 L 234.269531 141.898438 L 219.921875 156.246094 Z M 373.351562 140.25 L 373.351562 125.898438 L 250.269531 125.898438 L 235.917969 140.25 Z M 373.351562 124.25 L 373.351562 109.902344 L 266.265625 109.902344 L 251.917969 124.25 Z M 373.351562 108.25 L 373.351562 94.574219 L 281.59375 94.574219 L 267.914062 108.25 Z M 373.351562 92.925781 L 373.351562 1.652344 L 282.074219 1.652344 L 282.074219 92.925781 Z M 280.425781 1.652344 L 266.730469 1.652344 L 266.730469 107.101562 L 280.425781 93.410156 Z M 265.082031 1.652344 L 250.734375 1.652344 L 250.734375 123.101562 L 265.082031 108.753906 Z M 249.085938 1.652344 L 234.734375 1.652344 L 234.734375 139.097656 L 249.085938 124.75 Z M 233.085938 1.652344 L 218.738281 1.652344 L 218.738281 155.097656 L 233.085938 140.75 Z M 217.089844 1.652344 L 202.738281 1.652344 L 202.738281 171.09375 L 217.089844 156.746094 Z M 201.089844 1.652344 L 189.152344 1.652344 L 189.152344 184.683594 L 201.089844 172.746094 Z M 360.277344 80.679688 L 294.320312 80.679688 L 294.320312 13.898438 L 361.105469 13.898438 L 361.105469 80.679688 Z M 295.972656 79.03125 L 359.453125 79.03125 L 359.453125 15.546875 L 295.972656 15.546875 Z M 345.933594 66.332031 L 308.667969 66.332031 L 308.667969 28.242188 L 346.757812 28.242188 L 346.757812 66.332031 Z M 310.316406 64.683594 L 345.109375 64.683594 L 345.109375 29.894531 L 310.316406 29.894531 Z M 324.664062 50.335938 L 330.761719 50.335938 L 330.761719 44.238281 L 324.664062 44.238281 Z M 324.664062 50.335938 " fill-opacity="1" fill-rule="nonzero"/></g><g clip-path="url(#5f62c566f8)"><path fill="#d6dfe0" d="M 323.015625 331.585938 L 323.015625 323.015625 L 332.410156 323.015625 L 332.410156 332.410156 L 323.015625 332.410156 Z M 187.5 374.175781 L 187.5 187.5 L 375 187.5 L 375 375 L 187.5 375 Z M 189.148438 190.316406 L 189.148438 373.351562 L 201.105469 373.351562 L 201.105469 202.273438 Z M 202.757812 373.351562 L 217.105469 373.351562 L 217.105469 218.273438 L 202.757812 203.921875 Z M 218.753906 373.351562 L 233.101562 373.351562 L 233.101562 234.269531 L 218.753906 219.921875 Z M 234.75 373.351562 L 249.101562 373.351562 L 249.101562 250.269531 L 234.75 235.917969 Z M 250.75 373.351562 L 265.097656 373.351562 L 265.097656 266.265625 L 250.75 251.917969 Z M 266.75 373.351562 L 280.425781 373.351562 L 280.425781 281.59375 L 266.75 267.914062 Z M 282.074219 373.351562 L 373.347656 373.351562 L 373.347656 282.074219 L 282.074219 282.074219 Z M 373.347656 280.425781 L 373.347656 266.730469 L 267.898438 266.730469 L 281.589844 280.425781 Z M 373.347656 265.082031 L 373.347656 250.734375 L 251.898438 250.734375 L 266.246094 265.082031 Z M 373.347656 249.085938 L 373.347656 234.734375 L 235.902344 234.734375 L 250.25 249.085938 Z M 373.347656 233.085938 L 373.347656 218.738281 L 219.902344 218.738281 L 234.25 233.085938 Z M 373.347656 217.089844 L 373.347656 202.738281 L 203.90625 202.738281 L 218.253906 217.089844 Z M 373.347656 201.089844 L 373.347656 189.152344 L 190.316406 189.152344 L 202.253906 201.089844 Z M 294.320312 360.277344 L 294.320312 294.320312 L 361.101562 294.320312 L 361.101562 361.105469 L 294.320312 361.105469 Z M 295.96875 295.972656 L 295.96875 359.453125 L 359.453125 359.453125 L 359.453125 295.972656 Z M 308.667969 345.933594 L 308.667969 308.667969 L 346.757812 308.667969 L 346.757812 346.757812 L 308.667969 346.757812 Z M 310.316406 310.316406 L 310.316406 345.109375 L 345.105469 345.109375 L 345.105469 310.316406 Z M 324.664062 324.664062 L 324.664062 330.761719 L 330.761719 330.761719 L 330.761719 324.664062 Z M 324.664062 324.664062 " fill-opacity="1" fill-rule="nonzero"/></g><g clip-path="url(#97679c09e8)"><path fill="#d6dfe0" d="M 51.984375 230.914062 L 51.984375 239.484375 L 42.589844 239.484375 L 42.589844 230.089844 L 51.984375 230.089844 Z M 187.5 188.324219 L 187.5 375 L 0 375 L 0 187.5 L 187.5 187.5 Z M 185.851562 372.183594 L 185.851562 189.148438 L 173.894531 189.148438 L 173.894531 360.226562 Z M 172.242188 189.148438 L 157.894531 189.148438 L 157.894531 344.226562 L 172.242188 358.578125 Z M 156.246094 189.148438 L 141.898438 189.148438 L 141.898438 328.230469 L 156.246094 342.578125 Z M 140.25 189.148438 L 125.898438 189.148438 L 125.898438 312.230469 L 140.25 326.582031 Z M 124.25 189.148438 L 109.902344 189.148438 L 109.902344 296.234375 L 124.25 310.582031 Z M 108.25 189.148438 L 94.574219 189.148438 L 94.574219 280.90625 L 108.25 294.585938 Z M 92.925781 189.148438 L 1.652344 189.148438 L 1.652344 280.425781 L 92.925781 280.425781 Z M 1.652344 282.074219 L 1.652344 295.769531 L 107.101562 295.769531 L 93.410156 282.074219 Z M 1.652344 297.417969 L 1.652344 311.765625 L 123.101562 311.765625 L 108.753906 297.417969 Z M 1.652344 313.414062 L 1.652344 327.765625 L 139.097656 327.765625 L 124.75 313.414062 Z M 1.652344 329.414062 L 1.652344 343.761719 L 155.097656 343.761719 L 140.75 329.414062 Z M 1.652344 345.410156 L 1.652344 359.761719 L 171.09375 359.761719 L 156.746094 345.410156 Z M 1.652344 361.410156 L 1.652344 373.347656 L 184.683594 373.347656 L 172.746094 361.410156 Z M 80.679688 202.222656 L 80.679688 268.179688 L 13.898438 268.179688 L 13.898438 201.394531 L 80.679688 201.394531 Z M 79.03125 266.527344 L 79.03125 203.046875 L 15.546875 203.046875 L 15.546875 266.527344 Z M 66.332031 216.566406 L 66.332031 253.832031 L 28.242188 253.832031 L 28.242188 215.742188 L 66.332031 215.742188 Z M 64.683594 252.183594 L 64.683594 217.390625 L 29.894531 217.390625 L 29.894531 252.183594 Z M 50.335938 237.835938 L 50.335938 231.738281 L 44.238281 231.738281 L 44.238281 237.835938 Z M 50.335938 237.835938 " fill-opacity="1" fill-rule="nonzero"/></g></svg>